M48
INCH,TZ
T1C0.032
T2C0.040
T3C0.050
T4C0.159
%
G90
G05
T1
X043650Y-041000
X043650Y-042000
X044739Y-043061
X046250Y-043250
X046861Y-040939
X047900Y-045200
X047900Y-046200
X048400Y-041000
X048400Y-042000
X048500Y-048000
X049200Y-045200
X049200Y-046200
X049250Y-043250
X050400Y-043250
X050400Y-044250
X050400Y-045250
X050400Y-046250
X051500Y-048000
X053400Y-043250
X053400Y-044250
X053400Y-045250
X053400Y-046250
T2
X041700Y-040250
X041700Y-041250
X041700Y-042250
X041700Y-043250
X041700Y-048000
X042700Y-048000
X043700Y-048000
X044100Y-046250
X044700Y-048000
X045100Y-046250
X045700Y-048000
X046100Y-046250
X046700Y-048000
X050400Y-041250
X051400Y-041250
X052400Y-041250
X052800Y-048150
X053800Y-048150
X055600Y-043250
X055600Y-045250
T3
X055600Y-042250
X055600Y-044250
X055600Y-046250
T4
X040900Y-045500
X057550Y-047450
X057600Y-041150
T0
M30
