G04 (created by PCBNEW (2013-june-11)-stable) date Sun 07 Dec 2014 09:31:45 PM EST*
%MOIN*%
G04 Gerber Fmt 3.4, Leading zero omitted, Abs format*
%FSLAX34Y34*%
G01*
G70*
G90*
G04 APERTURE LIST*
%ADD10C,0.00590551*%
%ADD11C,0.19937*%
%ADD12C,0.06*%
%ADD13C,0.1*%
%ADD14R,0.1X0.1*%
%ADD15R,0.06X0.06*%
%ADD16C,0.07*%
%ADD17R,0.07X0.07*%
%ADD18C,0.055*%
%ADD19R,0.055X0.055*%
%ADD20C,0.035*%
%ADD21C,0.01*%
G04 APERTURE END LIST*
G54D10*
G54D11*
X40750Y-41150D03*
X57600Y-41150D03*
X57550Y-47450D03*
G54D12*
X55600Y-43250D03*
G54D13*
X55600Y-44250D03*
G54D14*
X55600Y-46250D03*
G54D13*
X55600Y-42250D03*
G54D12*
X55600Y-45250D03*
G54D15*
X52800Y-48150D03*
G54D12*
X53800Y-48150D03*
G54D16*
X43150Y-40850D03*
X44150Y-40850D03*
G54D17*
X45150Y-40850D03*
G54D16*
X51200Y-40900D03*
X52200Y-40900D03*
G54D17*
X53200Y-40900D03*
G54D18*
X45600Y-43650D03*
X42600Y-43650D03*
X51500Y-48000D03*
X48500Y-48000D03*
G54D15*
X49100Y-43350D03*
G54D12*
X49100Y-42350D03*
X49100Y-41350D03*
X49100Y-40350D03*
G54D15*
X42150Y-48000D03*
G54D12*
X43150Y-48000D03*
X44150Y-48000D03*
X45150Y-48000D03*
X46150Y-48000D03*
X47150Y-48000D03*
G54D18*
X41450Y-43250D03*
X40450Y-43250D03*
X47650Y-46650D03*
X47650Y-45650D03*
G54D19*
X53400Y-46250D03*
G54D18*
X53400Y-45250D03*
X53400Y-44250D03*
X53400Y-43250D03*
X50400Y-43250D03*
X50400Y-44250D03*
X50400Y-45250D03*
X50400Y-46250D03*
X49150Y-45650D03*
X49150Y-46650D03*
G54D15*
X40950Y-45300D03*
G54D12*
X40950Y-46300D03*
G54D18*
X42600Y-42500D03*
X45600Y-42500D03*
G54D20*
X43150Y-46150D03*
X46650Y-46150D03*
X44850Y-42500D03*
X44850Y-43650D03*
X44850Y-46650D03*
G54D21*
X51500Y-48000D02*
X52150Y-47350D01*
X53800Y-47900D02*
X53800Y-48150D01*
X53250Y-47350D02*
X53800Y-47900D01*
X52150Y-47350D02*
X53250Y-47350D01*
X50400Y-44250D02*
X50750Y-44250D01*
X45700Y-48550D02*
X45150Y-48000D01*
X49900Y-48550D02*
X45700Y-48550D01*
X51050Y-47400D02*
X49900Y-48550D01*
X51050Y-44550D02*
X51050Y-47400D01*
X50750Y-44250D02*
X51050Y-44550D01*
X46650Y-46150D02*
X43150Y-46150D01*
X44850Y-43650D02*
X44850Y-42500D01*
X47650Y-46650D02*
X44850Y-46650D01*
X50400Y-46250D02*
X50000Y-46650D01*
X48050Y-47050D02*
X47650Y-46650D01*
X48800Y-47050D02*
X48050Y-47050D01*
X49050Y-47300D02*
X48800Y-47050D01*
X49650Y-47300D02*
X49050Y-47300D01*
X50000Y-46950D02*
X49650Y-47300D01*
X50000Y-46650D02*
X50000Y-46950D01*
X55600Y-46250D02*
X55600Y-45250D01*
G54D10*
G36*
X55676Y-45255D02*
X55605Y-45326D01*
X55600Y-45320D01*
X55594Y-45326D01*
X55523Y-45255D01*
X55529Y-45250D01*
X55523Y-45244D01*
X55594Y-45173D01*
X55600Y-45179D01*
X55605Y-45173D01*
X55676Y-45244D01*
X55670Y-45250D01*
X55676Y-45255D01*
X55676Y-45255D01*
G37*
G54D21*
X55676Y-45255D02*
X55605Y-45326D01*
X55600Y-45320D01*
X55594Y-45326D01*
X55523Y-45255D01*
X55529Y-45250D01*
X55523Y-45244D01*
X55594Y-45173D01*
X55600Y-45179D01*
X55605Y-45173D01*
X55676Y-45244D01*
X55670Y-45250D01*
X55676Y-45255D01*
G54D10*
G36*
X58730Y-48930D02*
X55550Y-48930D01*
X55550Y-46937D01*
X55550Y-46300D01*
X54912Y-46300D01*
X54850Y-46362D01*
X54849Y-46700D01*
X54850Y-46799D01*
X54888Y-46891D01*
X54958Y-46962D01*
X55050Y-47000D01*
X55487Y-47000D01*
X55550Y-46937D01*
X55550Y-48930D01*
X54350Y-48930D01*
X54350Y-48041D01*
X54266Y-47838D01*
X54111Y-47684D01*
X53934Y-47610D01*
X53929Y-47605D01*
X53929Y-43325D01*
X53918Y-43117D01*
X53860Y-42977D01*
X53800Y-42961D01*
X53800Y-41299D01*
X53800Y-40500D01*
X53762Y-40408D01*
X53691Y-40338D01*
X53599Y-40300D01*
X53500Y-40299D01*
X53312Y-40300D01*
X53250Y-40362D01*
X53250Y-40850D01*
X53737Y-40850D01*
X53800Y-40787D01*
X53800Y-40500D01*
X53800Y-41299D01*
X53800Y-41012D01*
X53737Y-40950D01*
X53250Y-40950D01*
X53250Y-41437D01*
X53312Y-41500D01*
X53500Y-41500D01*
X53599Y-41499D01*
X53691Y-41461D01*
X53762Y-41391D01*
X53800Y-41299D01*
X53800Y-42961D01*
X53767Y-42952D01*
X53697Y-43023D01*
X53697Y-42882D01*
X53672Y-42789D01*
X53475Y-42720D01*
X53267Y-42731D01*
X53150Y-42780D01*
X53150Y-41437D01*
X53150Y-40950D01*
X53142Y-40950D01*
X53142Y-40850D01*
X53150Y-40850D01*
X53150Y-40362D01*
X53087Y-40300D01*
X52899Y-40299D01*
X52800Y-40300D01*
X52708Y-40338D01*
X52637Y-40408D01*
X52614Y-40465D01*
X52540Y-40391D01*
X52319Y-40300D01*
X52081Y-40299D01*
X51860Y-40391D01*
X51699Y-40551D01*
X51540Y-40391D01*
X51319Y-40300D01*
X51081Y-40299D01*
X50860Y-40391D01*
X50691Y-40559D01*
X50600Y-40780D01*
X50599Y-41018D01*
X50691Y-41239D01*
X50859Y-41408D01*
X51080Y-41499D01*
X51318Y-41500D01*
X51539Y-41408D01*
X51700Y-41248D01*
X51859Y-41408D01*
X52080Y-41499D01*
X52318Y-41500D01*
X52539Y-41408D01*
X52614Y-41334D01*
X52637Y-41391D01*
X52708Y-41461D01*
X52800Y-41499D01*
X52899Y-41500D01*
X53087Y-41500D01*
X53150Y-41437D01*
X53150Y-42780D01*
X53127Y-42789D01*
X53102Y-42882D01*
X53400Y-43179D01*
X53697Y-42882D01*
X53697Y-43023D01*
X53470Y-43250D01*
X53767Y-43547D01*
X53860Y-43522D01*
X53929Y-43325D01*
X53929Y-47605D01*
X53925Y-47600D01*
X53925Y-45146D01*
X53845Y-44953D01*
X53697Y-44805D01*
X53564Y-44749D01*
X53697Y-44695D01*
X53844Y-44547D01*
X53924Y-44354D01*
X53925Y-44146D01*
X53845Y-43953D01*
X53697Y-43805D01*
X53571Y-43752D01*
X53672Y-43710D01*
X53697Y-43617D01*
X53400Y-43320D01*
X53329Y-43391D01*
X53329Y-43250D01*
X53032Y-42952D01*
X52939Y-42977D01*
X52870Y-43174D01*
X52881Y-43382D01*
X52939Y-43522D01*
X53032Y-43547D01*
X53329Y-43250D01*
X53329Y-43391D01*
X53102Y-43617D01*
X53127Y-43710D01*
X53237Y-43749D01*
X53103Y-43804D01*
X52955Y-43952D01*
X52875Y-44145D01*
X52874Y-44353D01*
X52954Y-44547D01*
X53102Y-44694D01*
X53235Y-44750D01*
X53103Y-44804D01*
X52955Y-44952D01*
X52875Y-45145D01*
X52874Y-45353D01*
X52954Y-45547D01*
X53102Y-45694D01*
X53174Y-45724D01*
X53075Y-45724D01*
X52983Y-45762D01*
X52913Y-45833D01*
X52875Y-45925D01*
X52874Y-46024D01*
X52874Y-46574D01*
X52912Y-46666D01*
X52983Y-46736D01*
X53075Y-46774D01*
X53174Y-46775D01*
X53724Y-46775D01*
X53816Y-46737D01*
X53886Y-46666D01*
X53924Y-46574D01*
X53925Y-46475D01*
X53925Y-45925D01*
X53887Y-45833D01*
X53816Y-45763D01*
X53724Y-45725D01*
X53625Y-45724D01*
X53625Y-45724D01*
X53697Y-45695D01*
X53844Y-45547D01*
X53924Y-45354D01*
X53925Y-45146D01*
X53925Y-47600D01*
X53462Y-47137D01*
X53364Y-47072D01*
X53250Y-47050D01*
X52150Y-47050D01*
X52035Y-47072D01*
X51937Y-47137D01*
X51600Y-47475D01*
X51396Y-47474D01*
X51329Y-47502D01*
X51349Y-47400D01*
X51350Y-47400D01*
X51350Y-44550D01*
X51349Y-44549D01*
X51327Y-44435D01*
X51262Y-44337D01*
X51262Y-44337D01*
X50962Y-44037D01*
X50864Y-43972D01*
X50852Y-43970D01*
X50845Y-43953D01*
X50697Y-43805D01*
X50564Y-43749D01*
X50697Y-43695D01*
X50844Y-43547D01*
X50924Y-43354D01*
X50925Y-43146D01*
X50845Y-42953D01*
X50697Y-42805D01*
X50504Y-42725D01*
X50296Y-42724D01*
X50103Y-42804D01*
X49955Y-42952D01*
X49875Y-43145D01*
X49874Y-43353D01*
X49954Y-43547D01*
X50102Y-43694D01*
X50235Y-43750D01*
X50103Y-43804D01*
X49955Y-43952D01*
X49875Y-44145D01*
X49874Y-44353D01*
X49954Y-44547D01*
X50102Y-44694D01*
X50235Y-44750D01*
X50103Y-44804D01*
X49955Y-44952D01*
X49875Y-45145D01*
X49874Y-45353D01*
X49954Y-45547D01*
X50102Y-45694D01*
X50235Y-45750D01*
X50103Y-45804D01*
X49955Y-45952D01*
X49875Y-46145D01*
X49874Y-46350D01*
X49787Y-46437D01*
X49722Y-46535D01*
X49700Y-46650D01*
X49700Y-46825D01*
X49679Y-46845D01*
X49679Y-45725D01*
X49668Y-45517D01*
X49654Y-45483D01*
X49654Y-40431D01*
X49643Y-40213D01*
X49581Y-40062D01*
X49485Y-40034D01*
X49415Y-40105D01*
X49415Y-39964D01*
X49387Y-39868D01*
X49181Y-39795D01*
X48963Y-39806D01*
X48812Y-39868D01*
X48784Y-39964D01*
X49100Y-40279D01*
X49415Y-39964D01*
X49415Y-40105D01*
X49170Y-40350D01*
X49485Y-40665D01*
X49581Y-40637D01*
X49654Y-40431D01*
X49654Y-45483D01*
X49650Y-45472D01*
X49650Y-42241D01*
X49566Y-42038D01*
X49411Y-41884D01*
X49330Y-41850D01*
X49411Y-41816D01*
X49565Y-41661D01*
X49649Y-41459D01*
X49650Y-41241D01*
X49566Y-41038D01*
X49411Y-40884D01*
X49336Y-40852D01*
X49387Y-40831D01*
X49415Y-40735D01*
X49100Y-40420D01*
X49029Y-40491D01*
X49029Y-40350D01*
X48714Y-40034D01*
X48618Y-40062D01*
X48545Y-40268D01*
X48556Y-40486D01*
X48618Y-40637D01*
X48714Y-40665D01*
X49029Y-40350D01*
X49029Y-40491D01*
X48784Y-40735D01*
X48812Y-40831D01*
X48867Y-40850D01*
X48788Y-40883D01*
X48634Y-41038D01*
X48550Y-41240D01*
X48549Y-41458D01*
X48633Y-41661D01*
X48788Y-41815D01*
X48869Y-41849D01*
X48788Y-41883D01*
X48634Y-42038D01*
X48550Y-42240D01*
X48549Y-42458D01*
X48633Y-42661D01*
X48772Y-42799D01*
X48750Y-42799D01*
X48658Y-42837D01*
X48588Y-42908D01*
X48550Y-43000D01*
X48549Y-43099D01*
X48549Y-43699D01*
X48587Y-43791D01*
X48658Y-43861D01*
X48750Y-43899D01*
X48849Y-43900D01*
X49449Y-43900D01*
X49541Y-43862D01*
X49611Y-43791D01*
X49649Y-43699D01*
X49650Y-43600D01*
X49650Y-43000D01*
X49612Y-42908D01*
X49541Y-42838D01*
X49449Y-42800D01*
X49427Y-42800D01*
X49565Y-42661D01*
X49649Y-42459D01*
X49650Y-42241D01*
X49650Y-45472D01*
X49610Y-45377D01*
X49517Y-45352D01*
X49447Y-45423D01*
X49447Y-45282D01*
X49422Y-45189D01*
X49225Y-45120D01*
X49017Y-45131D01*
X48877Y-45189D01*
X48852Y-45282D01*
X49150Y-45579D01*
X49447Y-45282D01*
X49447Y-45423D01*
X49220Y-45650D01*
X49517Y-45947D01*
X49610Y-45922D01*
X49679Y-45725D01*
X49679Y-46845D01*
X49606Y-46918D01*
X49674Y-46754D01*
X49675Y-46546D01*
X49595Y-46353D01*
X49447Y-46205D01*
X49321Y-46152D01*
X49422Y-46110D01*
X49447Y-46017D01*
X49150Y-45720D01*
X49079Y-45791D01*
X49079Y-45650D01*
X48782Y-45352D01*
X48689Y-45377D01*
X48620Y-45574D01*
X48631Y-45782D01*
X48689Y-45922D01*
X48782Y-45947D01*
X49079Y-45650D01*
X49079Y-45791D01*
X48852Y-46017D01*
X48877Y-46110D01*
X48987Y-46149D01*
X48853Y-46204D01*
X48705Y-46352D01*
X48625Y-46545D01*
X48624Y-46750D01*
X48179Y-46750D01*
X48179Y-45725D01*
X48168Y-45517D01*
X48110Y-45377D01*
X48017Y-45352D01*
X47947Y-45423D01*
X47947Y-45282D01*
X47922Y-45189D01*
X47725Y-45120D01*
X47517Y-45131D01*
X47377Y-45189D01*
X47352Y-45282D01*
X47650Y-45579D01*
X47947Y-45282D01*
X47947Y-45423D01*
X47720Y-45650D01*
X48017Y-45947D01*
X48110Y-45922D01*
X48179Y-45725D01*
X48179Y-46750D01*
X48174Y-46750D01*
X48175Y-46546D01*
X48095Y-46353D01*
X47947Y-46205D01*
X47821Y-46152D01*
X47922Y-46110D01*
X47947Y-46017D01*
X47650Y-45720D01*
X47579Y-45791D01*
X47579Y-45650D01*
X47282Y-45352D01*
X47189Y-45377D01*
X47120Y-45574D01*
X47131Y-45782D01*
X47189Y-45922D01*
X47282Y-45947D01*
X47579Y-45650D01*
X47579Y-45791D01*
X47352Y-46017D01*
X47377Y-46110D01*
X47487Y-46149D01*
X47353Y-46204D01*
X47207Y-46350D01*
X47027Y-46350D01*
X47074Y-46234D01*
X47075Y-46065D01*
X47010Y-45909D01*
X46891Y-45789D01*
X46734Y-45725D01*
X46565Y-45724D01*
X46409Y-45789D01*
X46348Y-45850D01*
X46125Y-45850D01*
X46125Y-43546D01*
X46045Y-43353D01*
X45897Y-43205D01*
X45704Y-43125D01*
X45496Y-43124D01*
X45303Y-43204D01*
X45155Y-43352D01*
X45154Y-43353D01*
X45150Y-43348D01*
X45150Y-42801D01*
X45154Y-42796D01*
X45154Y-42797D01*
X45302Y-42944D01*
X45495Y-43024D01*
X45703Y-43025D01*
X45897Y-42945D01*
X46044Y-42797D01*
X46124Y-42604D01*
X46125Y-42396D01*
X46045Y-42203D01*
X45897Y-42055D01*
X45750Y-41993D01*
X45750Y-41150D01*
X45750Y-40450D01*
X45712Y-40358D01*
X45641Y-40288D01*
X45549Y-40250D01*
X45450Y-40249D01*
X44750Y-40249D01*
X44658Y-40287D01*
X44588Y-40358D01*
X44568Y-40404D01*
X44546Y-40382D01*
X44501Y-40427D01*
X44467Y-40327D01*
X44243Y-40245D01*
X44005Y-40255D01*
X43832Y-40327D01*
X43798Y-40427D01*
X44150Y-40779D01*
X44155Y-40773D01*
X44226Y-40844D01*
X44220Y-40850D01*
X44226Y-40855D01*
X44155Y-40926D01*
X44150Y-40920D01*
X44079Y-40991D01*
X44079Y-40850D01*
X43727Y-40498D01*
X43662Y-40520D01*
X43658Y-40510D01*
X43490Y-40341D01*
X43269Y-40250D01*
X43031Y-40249D01*
X42810Y-40341D01*
X42641Y-40509D01*
X42550Y-40730D01*
X42549Y-40968D01*
X42641Y-41189D01*
X42809Y-41358D01*
X43030Y-41449D01*
X43268Y-41450D01*
X43489Y-41358D01*
X43658Y-41190D01*
X43662Y-41179D01*
X43727Y-41201D01*
X44079Y-40850D01*
X44079Y-40991D01*
X43798Y-41272D01*
X43832Y-41372D01*
X44056Y-41454D01*
X44294Y-41444D01*
X44467Y-41372D01*
X44501Y-41272D01*
X44501Y-41272D01*
X44546Y-41317D01*
X44568Y-41295D01*
X44587Y-41341D01*
X44658Y-41411D01*
X44750Y-41449D01*
X44849Y-41450D01*
X45549Y-41450D01*
X45641Y-41412D01*
X45711Y-41341D01*
X45749Y-41249D01*
X45750Y-41150D01*
X45750Y-41993D01*
X45704Y-41975D01*
X45496Y-41974D01*
X45303Y-42054D01*
X45155Y-42202D01*
X45154Y-42203D01*
X45091Y-42139D01*
X44934Y-42075D01*
X44765Y-42074D01*
X44609Y-42139D01*
X44501Y-42247D01*
X44489Y-42258D01*
X44425Y-42415D01*
X44424Y-42584D01*
X44489Y-42740D01*
X44550Y-42801D01*
X44550Y-43348D01*
X44489Y-43408D01*
X44425Y-43565D01*
X44424Y-43734D01*
X44489Y-43890D01*
X44608Y-44010D01*
X44765Y-44074D01*
X44934Y-44075D01*
X45090Y-44010D01*
X45154Y-43946D01*
X45154Y-43947D01*
X45302Y-44094D01*
X45495Y-44174D01*
X45703Y-44175D01*
X45897Y-44095D01*
X46044Y-43947D01*
X46124Y-43754D01*
X46125Y-43546D01*
X46125Y-45850D01*
X43451Y-45850D01*
X43391Y-45789D01*
X43234Y-45725D01*
X43129Y-45724D01*
X43129Y-43725D01*
X43125Y-43637D01*
X43125Y-42396D01*
X43045Y-42203D01*
X42897Y-42055D01*
X42704Y-41975D01*
X42496Y-41974D01*
X42303Y-42054D01*
X42155Y-42202D01*
X42075Y-42395D01*
X42074Y-42603D01*
X42154Y-42797D01*
X42302Y-42944D01*
X42495Y-43024D01*
X42703Y-43025D01*
X42897Y-42945D01*
X43044Y-42797D01*
X43124Y-42604D01*
X43125Y-42396D01*
X43125Y-43637D01*
X43118Y-43517D01*
X43060Y-43377D01*
X42967Y-43352D01*
X42897Y-43423D01*
X42897Y-43282D01*
X42872Y-43189D01*
X42675Y-43120D01*
X42467Y-43131D01*
X42327Y-43189D01*
X42302Y-43282D01*
X42600Y-43579D01*
X42897Y-43282D01*
X42897Y-43423D01*
X42670Y-43650D01*
X42967Y-43947D01*
X43060Y-43922D01*
X43129Y-43725D01*
X43129Y-45724D01*
X43065Y-45724D01*
X42909Y-45789D01*
X42897Y-45801D01*
X42897Y-44017D01*
X42600Y-43720D01*
X42529Y-43791D01*
X42529Y-43650D01*
X42232Y-43352D01*
X42139Y-43377D01*
X42070Y-43574D01*
X42081Y-43782D01*
X42139Y-43922D01*
X42232Y-43947D01*
X42529Y-43650D01*
X42529Y-43791D01*
X42302Y-44017D01*
X42327Y-44110D01*
X42524Y-44179D01*
X42732Y-44168D01*
X42872Y-44110D01*
X42897Y-44017D01*
X42897Y-45801D01*
X42789Y-45908D01*
X42725Y-46065D01*
X42724Y-46234D01*
X42789Y-46390D01*
X42908Y-46510D01*
X43065Y-46574D01*
X43234Y-46575D01*
X43390Y-46510D01*
X43451Y-46450D01*
X44472Y-46450D01*
X44425Y-46565D01*
X44424Y-46734D01*
X44489Y-46890D01*
X44608Y-47010D01*
X44765Y-47074D01*
X44934Y-47075D01*
X45090Y-47010D01*
X45151Y-46950D01*
X47207Y-46950D01*
X47352Y-47094D01*
X47545Y-47174D01*
X47750Y-47175D01*
X47837Y-47262D01*
X47837Y-47262D01*
X47935Y-47327D01*
X48049Y-47349D01*
X48050Y-47350D01*
X48675Y-47350D01*
X48837Y-47512D01*
X48837Y-47512D01*
X48935Y-47577D01*
X49050Y-47600D01*
X49650Y-47600D01*
X49650Y-47599D01*
X49764Y-47577D01*
X49764Y-47577D01*
X49862Y-47512D01*
X50212Y-47162D01*
X50212Y-47162D01*
X50277Y-47064D01*
X50299Y-46950D01*
X50300Y-46950D01*
X50300Y-46774D01*
X50503Y-46775D01*
X50697Y-46695D01*
X50750Y-46642D01*
X50750Y-47275D01*
X49775Y-48250D01*
X48968Y-48250D01*
X49029Y-48075D01*
X49018Y-47867D01*
X48960Y-47727D01*
X48867Y-47702D01*
X48797Y-47773D01*
X48797Y-47632D01*
X48772Y-47539D01*
X48575Y-47470D01*
X48367Y-47481D01*
X48227Y-47539D01*
X48202Y-47632D01*
X48500Y-47929D01*
X48797Y-47632D01*
X48797Y-47773D01*
X48570Y-48000D01*
X48576Y-48005D01*
X48505Y-48076D01*
X48500Y-48070D01*
X48494Y-48076D01*
X48423Y-48005D01*
X48429Y-48000D01*
X48132Y-47702D01*
X48039Y-47727D01*
X47970Y-47924D01*
X47981Y-48132D01*
X48030Y-48250D01*
X47641Y-48250D01*
X47699Y-48109D01*
X47700Y-47891D01*
X47616Y-47688D01*
X47461Y-47534D01*
X47259Y-47450D01*
X47041Y-47449D01*
X46838Y-47533D01*
X46684Y-47688D01*
X46650Y-47769D01*
X46616Y-47688D01*
X46461Y-47534D01*
X46259Y-47450D01*
X46041Y-47449D01*
X45838Y-47533D01*
X45684Y-47688D01*
X45650Y-47769D01*
X45616Y-47688D01*
X45461Y-47534D01*
X45259Y-47450D01*
X45041Y-47449D01*
X44838Y-47533D01*
X44684Y-47688D01*
X44650Y-47769D01*
X44616Y-47688D01*
X44461Y-47534D01*
X44259Y-47450D01*
X44041Y-47449D01*
X43838Y-47533D01*
X43684Y-47688D01*
X43650Y-47769D01*
X43616Y-47688D01*
X43461Y-47534D01*
X43259Y-47450D01*
X43041Y-47449D01*
X42838Y-47533D01*
X42699Y-47672D01*
X42699Y-47650D01*
X42661Y-47558D01*
X42591Y-47487D01*
X42499Y-47449D01*
X42262Y-47450D01*
X42200Y-47512D01*
X42200Y-47950D01*
X42207Y-47950D01*
X42207Y-48050D01*
X42200Y-48050D01*
X42200Y-48487D01*
X42262Y-48550D01*
X42499Y-48550D01*
X42591Y-48512D01*
X42661Y-48441D01*
X42699Y-48349D01*
X42699Y-48327D01*
X42838Y-48465D01*
X43040Y-48549D01*
X43258Y-48550D01*
X43461Y-48466D01*
X43615Y-48311D01*
X43649Y-48230D01*
X43683Y-48311D01*
X43838Y-48465D01*
X44040Y-48549D01*
X44258Y-48550D01*
X44461Y-48466D01*
X44615Y-48311D01*
X44649Y-48230D01*
X44683Y-48311D01*
X44838Y-48465D01*
X45040Y-48549D01*
X45258Y-48550D01*
X45270Y-48545D01*
X45487Y-48762D01*
X45487Y-48762D01*
X45585Y-48827D01*
X45700Y-48850D01*
X49900Y-48850D01*
X49900Y-48849D01*
X50014Y-48827D01*
X50014Y-48827D01*
X50112Y-48762D01*
X50975Y-47899D01*
X50974Y-48103D01*
X51054Y-48297D01*
X51202Y-48444D01*
X51395Y-48524D01*
X51603Y-48525D01*
X51797Y-48445D01*
X51944Y-48297D01*
X52024Y-48104D01*
X52025Y-47899D01*
X52274Y-47650D01*
X52346Y-47650D01*
X52288Y-47708D01*
X52250Y-47800D01*
X52249Y-47899D01*
X52249Y-48499D01*
X52287Y-48591D01*
X52358Y-48661D01*
X52450Y-48699D01*
X52549Y-48700D01*
X53149Y-48700D01*
X53241Y-48662D01*
X53311Y-48591D01*
X53349Y-48499D01*
X53349Y-48477D01*
X53488Y-48615D01*
X53690Y-48699D01*
X53908Y-48700D01*
X54111Y-48616D01*
X54265Y-48461D01*
X54349Y-48259D01*
X54350Y-48041D01*
X54350Y-48930D01*
X42100Y-48930D01*
X42100Y-48487D01*
X42100Y-48050D01*
X42100Y-47950D01*
X42100Y-47512D01*
X42037Y-47450D01*
X41975Y-47449D01*
X41975Y-43146D01*
X41895Y-42953D01*
X41747Y-42805D01*
X41554Y-42725D01*
X41346Y-42724D01*
X41153Y-42804D01*
X41005Y-42952D01*
X40952Y-43078D01*
X40910Y-42977D01*
X40817Y-42952D01*
X40747Y-43023D01*
X40747Y-42882D01*
X40722Y-42789D01*
X40525Y-42720D01*
X40317Y-42731D01*
X40177Y-42789D01*
X40152Y-42882D01*
X40450Y-43179D01*
X40747Y-42882D01*
X40747Y-43023D01*
X40520Y-43250D01*
X40817Y-43547D01*
X40910Y-43522D01*
X40949Y-43412D01*
X41004Y-43547D01*
X41152Y-43694D01*
X41345Y-43774D01*
X41553Y-43775D01*
X41747Y-43695D01*
X41894Y-43547D01*
X41974Y-43354D01*
X41975Y-43146D01*
X41975Y-47449D01*
X41800Y-47449D01*
X41708Y-47487D01*
X41638Y-47558D01*
X41600Y-47650D01*
X41599Y-47749D01*
X41600Y-47887D01*
X41662Y-47950D01*
X42100Y-47950D01*
X42100Y-48050D01*
X41662Y-48050D01*
X41600Y-48112D01*
X41599Y-48250D01*
X41600Y-48349D01*
X41638Y-48441D01*
X41708Y-48512D01*
X41800Y-48550D01*
X42037Y-48550D01*
X42100Y-48487D01*
X42100Y-48930D01*
X41504Y-48930D01*
X41504Y-46381D01*
X41500Y-46287D01*
X41500Y-45550D01*
X41500Y-44950D01*
X41462Y-44858D01*
X41391Y-44788D01*
X41299Y-44750D01*
X41200Y-44749D01*
X40747Y-44749D01*
X40747Y-43617D01*
X40450Y-43320D01*
X40379Y-43391D01*
X40379Y-43250D01*
X40082Y-42952D01*
X39989Y-42977D01*
X39920Y-43174D01*
X39931Y-43382D01*
X39989Y-43522D01*
X40082Y-43547D01*
X40379Y-43250D01*
X40379Y-43391D01*
X40152Y-43617D01*
X40177Y-43710D01*
X40374Y-43779D01*
X40582Y-43768D01*
X40722Y-43710D01*
X40747Y-43617D01*
X40747Y-44749D01*
X40600Y-44749D01*
X40508Y-44787D01*
X40438Y-44858D01*
X40400Y-44950D01*
X40399Y-45049D01*
X40399Y-45649D01*
X40437Y-45741D01*
X40508Y-45811D01*
X40600Y-45849D01*
X40653Y-45850D01*
X40634Y-45914D01*
X40950Y-46229D01*
X41265Y-45914D01*
X41246Y-45850D01*
X41299Y-45850D01*
X41391Y-45812D01*
X41461Y-45741D01*
X41499Y-45649D01*
X41500Y-45550D01*
X41500Y-46287D01*
X41493Y-46163D01*
X41431Y-46012D01*
X41335Y-45984D01*
X41020Y-46300D01*
X41335Y-46615D01*
X41431Y-46587D01*
X41504Y-46381D01*
X41504Y-48930D01*
X41265Y-48930D01*
X41265Y-46685D01*
X40950Y-46370D01*
X40879Y-46441D01*
X40879Y-46300D01*
X40564Y-45984D01*
X40468Y-46012D01*
X40395Y-46218D01*
X40406Y-46436D01*
X40468Y-46587D01*
X40564Y-46615D01*
X40879Y-46300D01*
X40879Y-46441D01*
X40634Y-46685D01*
X40662Y-46781D01*
X40868Y-46854D01*
X41086Y-46843D01*
X41237Y-46781D01*
X41265Y-46685D01*
X41265Y-48930D01*
X39669Y-48930D01*
X39669Y-41800D01*
X39692Y-41855D01*
X40042Y-42206D01*
X40500Y-42396D01*
X40996Y-42397D01*
X41455Y-42207D01*
X41806Y-41857D01*
X41996Y-41399D01*
X41997Y-40903D01*
X41807Y-40444D01*
X41457Y-40093D01*
X40999Y-39903D01*
X40503Y-39902D01*
X40044Y-40092D01*
X39693Y-40442D01*
X39669Y-40500D01*
X39669Y-39669D01*
X58730Y-39669D01*
X58730Y-40620D01*
X58657Y-40444D01*
X58307Y-40093D01*
X57849Y-39903D01*
X57353Y-39902D01*
X56894Y-40092D01*
X56543Y-40442D01*
X56353Y-40900D01*
X56352Y-41396D01*
X56542Y-41855D01*
X56892Y-42206D01*
X57350Y-42396D01*
X57846Y-42397D01*
X58305Y-42207D01*
X58656Y-41857D01*
X58730Y-41679D01*
X58730Y-47041D01*
X58607Y-46744D01*
X58257Y-46393D01*
X57799Y-46203D01*
X57303Y-46202D01*
X56844Y-46392D01*
X56493Y-46742D01*
X56350Y-47088D01*
X56350Y-44101D01*
X56236Y-43825D01*
X56025Y-43614D01*
X56016Y-43611D01*
X56065Y-43561D01*
X56149Y-43359D01*
X56150Y-43141D01*
X56066Y-42938D01*
X56016Y-42889D01*
X56024Y-42886D01*
X56235Y-42675D01*
X56349Y-42399D01*
X56350Y-42101D01*
X56236Y-41825D01*
X56025Y-41614D01*
X55749Y-41500D01*
X55451Y-41499D01*
X55175Y-41613D01*
X54964Y-41824D01*
X54850Y-42100D01*
X54849Y-42398D01*
X54963Y-42674D01*
X55174Y-42885D01*
X55183Y-42888D01*
X55134Y-42938D01*
X55050Y-43140D01*
X55049Y-43358D01*
X55133Y-43561D01*
X55183Y-43610D01*
X55175Y-43613D01*
X54964Y-43824D01*
X54850Y-44100D01*
X54849Y-44398D01*
X54963Y-44674D01*
X55173Y-44884D01*
X55168Y-44889D01*
X55214Y-44934D01*
X55118Y-44962D01*
X55045Y-45168D01*
X55056Y-45386D01*
X55103Y-45499D01*
X55050Y-45499D01*
X54958Y-45537D01*
X54888Y-45608D01*
X54850Y-45700D01*
X54849Y-45799D01*
X54850Y-46137D01*
X54912Y-46200D01*
X55550Y-46200D01*
X55550Y-46192D01*
X55650Y-46192D01*
X55650Y-46200D01*
X56287Y-46200D01*
X56350Y-46137D01*
X56350Y-45799D01*
X56349Y-45700D01*
X56311Y-45608D01*
X56241Y-45537D01*
X56149Y-45499D01*
X56094Y-45499D01*
X56154Y-45331D01*
X56143Y-45113D01*
X56081Y-44962D01*
X55985Y-44934D01*
X56031Y-44889D01*
X56026Y-44884D01*
X56235Y-44675D01*
X56349Y-44399D01*
X56350Y-44101D01*
X56350Y-47088D01*
X56350Y-47088D01*
X56350Y-46700D01*
X56350Y-46362D01*
X56287Y-46300D01*
X55650Y-46300D01*
X55650Y-46937D01*
X55712Y-47000D01*
X56149Y-47000D01*
X56241Y-46962D01*
X56311Y-46891D01*
X56349Y-46799D01*
X56350Y-46700D01*
X56350Y-47088D01*
X56303Y-47200D01*
X56302Y-47696D01*
X56492Y-48155D01*
X56842Y-48506D01*
X57300Y-48696D01*
X57796Y-48697D01*
X58255Y-48507D01*
X58606Y-48157D01*
X58730Y-47858D01*
X58730Y-48930D01*
X58730Y-48930D01*
G37*
G54D21*
X58730Y-48930D02*
X55550Y-48930D01*
X55550Y-46937D01*
X55550Y-46300D01*
X54912Y-46300D01*
X54850Y-46362D01*
X54849Y-46700D01*
X54850Y-46799D01*
X54888Y-46891D01*
X54958Y-46962D01*
X55050Y-47000D01*
X55487Y-47000D01*
X55550Y-46937D01*
X55550Y-48930D01*
X54350Y-48930D01*
X54350Y-48041D01*
X54266Y-47838D01*
X54111Y-47684D01*
X53934Y-47610D01*
X53929Y-47605D01*
X53929Y-43325D01*
X53918Y-43117D01*
X53860Y-42977D01*
X53800Y-42961D01*
X53800Y-41299D01*
X53800Y-40500D01*
X53762Y-40408D01*
X53691Y-40338D01*
X53599Y-40300D01*
X53500Y-40299D01*
X53312Y-40300D01*
X53250Y-40362D01*
X53250Y-40850D01*
X53737Y-40850D01*
X53800Y-40787D01*
X53800Y-40500D01*
X53800Y-41299D01*
X53800Y-41012D01*
X53737Y-40950D01*
X53250Y-40950D01*
X53250Y-41437D01*
X53312Y-41500D01*
X53500Y-41500D01*
X53599Y-41499D01*
X53691Y-41461D01*
X53762Y-41391D01*
X53800Y-41299D01*
X53800Y-42961D01*
X53767Y-42952D01*
X53697Y-43023D01*
X53697Y-42882D01*
X53672Y-42789D01*
X53475Y-42720D01*
X53267Y-42731D01*
X53150Y-42780D01*
X53150Y-41437D01*
X53150Y-40950D01*
X53142Y-40950D01*
X53142Y-40850D01*
X53150Y-40850D01*
X53150Y-40362D01*
X53087Y-40300D01*
X52899Y-40299D01*
X52800Y-40300D01*
X52708Y-40338D01*
X52637Y-40408D01*
X52614Y-40465D01*
X52540Y-40391D01*
X52319Y-40300D01*
X52081Y-40299D01*
X51860Y-40391D01*
X51699Y-40551D01*
X51540Y-40391D01*
X51319Y-40300D01*
X51081Y-40299D01*
X50860Y-40391D01*
X50691Y-40559D01*
X50600Y-40780D01*
X50599Y-41018D01*
X50691Y-41239D01*
X50859Y-41408D01*
X51080Y-41499D01*
X51318Y-41500D01*
X51539Y-41408D01*
X51700Y-41248D01*
X51859Y-41408D01*
X52080Y-41499D01*
X52318Y-41500D01*
X52539Y-41408D01*
X52614Y-41334D01*
X52637Y-41391D01*
X52708Y-41461D01*
X52800Y-41499D01*
X52899Y-41500D01*
X53087Y-41500D01*
X53150Y-41437D01*
X53150Y-42780D01*
X53127Y-42789D01*
X53102Y-42882D01*
X53400Y-43179D01*
X53697Y-42882D01*
X53697Y-43023D01*
X53470Y-43250D01*
X53767Y-43547D01*
X53860Y-43522D01*
X53929Y-43325D01*
X53929Y-47605D01*
X53925Y-47600D01*
X53925Y-45146D01*
X53845Y-44953D01*
X53697Y-44805D01*
X53564Y-44749D01*
X53697Y-44695D01*
X53844Y-44547D01*
X53924Y-44354D01*
X53925Y-44146D01*
X53845Y-43953D01*
X53697Y-43805D01*
X53571Y-43752D01*
X53672Y-43710D01*
X53697Y-43617D01*
X53400Y-43320D01*
X53329Y-43391D01*
X53329Y-43250D01*
X53032Y-42952D01*
X52939Y-42977D01*
X52870Y-43174D01*
X52881Y-43382D01*
X52939Y-43522D01*
X53032Y-43547D01*
X53329Y-43250D01*
X53329Y-43391D01*
X53102Y-43617D01*
X53127Y-43710D01*
X53237Y-43749D01*
X53103Y-43804D01*
X52955Y-43952D01*
X52875Y-44145D01*
X52874Y-44353D01*
X52954Y-44547D01*
X53102Y-44694D01*
X53235Y-44750D01*
X53103Y-44804D01*
X52955Y-44952D01*
X52875Y-45145D01*
X52874Y-45353D01*
X52954Y-45547D01*
X53102Y-45694D01*
X53174Y-45724D01*
X53075Y-45724D01*
X52983Y-45762D01*
X52913Y-45833D01*
X52875Y-45925D01*
X52874Y-46024D01*
X52874Y-46574D01*
X52912Y-46666D01*
X52983Y-46736D01*
X53075Y-46774D01*
X53174Y-46775D01*
X53724Y-46775D01*
X53816Y-46737D01*
X53886Y-46666D01*
X53924Y-46574D01*
X53925Y-46475D01*
X53925Y-45925D01*
X53887Y-45833D01*
X53816Y-45763D01*
X53724Y-45725D01*
X53625Y-45724D01*
X53625Y-45724D01*
X53697Y-45695D01*
X53844Y-45547D01*
X53924Y-45354D01*
X53925Y-45146D01*
X53925Y-47600D01*
X53462Y-47137D01*
X53364Y-47072D01*
X53250Y-47050D01*
X52150Y-47050D01*
X52035Y-47072D01*
X51937Y-47137D01*
X51600Y-47475D01*
X51396Y-47474D01*
X51329Y-47502D01*
X51349Y-47400D01*
X51350Y-47400D01*
X51350Y-44550D01*
X51349Y-44549D01*
X51327Y-44435D01*
X51262Y-44337D01*
X51262Y-44337D01*
X50962Y-44037D01*
X50864Y-43972D01*
X50852Y-43970D01*
X50845Y-43953D01*
X50697Y-43805D01*
X50564Y-43749D01*
X50697Y-43695D01*
X50844Y-43547D01*
X50924Y-43354D01*
X50925Y-43146D01*
X50845Y-42953D01*
X50697Y-42805D01*
X50504Y-42725D01*
X50296Y-42724D01*
X50103Y-42804D01*
X49955Y-42952D01*
X49875Y-43145D01*
X49874Y-43353D01*
X49954Y-43547D01*
X50102Y-43694D01*
X50235Y-43750D01*
X50103Y-43804D01*
X49955Y-43952D01*
X49875Y-44145D01*
X49874Y-44353D01*
X49954Y-44547D01*
X50102Y-44694D01*
X50235Y-44750D01*
X50103Y-44804D01*
X49955Y-44952D01*
X49875Y-45145D01*
X49874Y-45353D01*
X49954Y-45547D01*
X50102Y-45694D01*
X50235Y-45750D01*
X50103Y-45804D01*
X49955Y-45952D01*
X49875Y-46145D01*
X49874Y-46350D01*
X49787Y-46437D01*
X49722Y-46535D01*
X49700Y-46650D01*
X49700Y-46825D01*
X49679Y-46845D01*
X49679Y-45725D01*
X49668Y-45517D01*
X49654Y-45483D01*
X49654Y-40431D01*
X49643Y-40213D01*
X49581Y-40062D01*
X49485Y-40034D01*
X49415Y-40105D01*
X49415Y-39964D01*
X49387Y-39868D01*
X49181Y-39795D01*
X48963Y-39806D01*
X48812Y-39868D01*
X48784Y-39964D01*
X49100Y-40279D01*
X49415Y-39964D01*
X49415Y-40105D01*
X49170Y-40350D01*
X49485Y-40665D01*
X49581Y-40637D01*
X49654Y-40431D01*
X49654Y-45483D01*
X49650Y-45472D01*
X49650Y-42241D01*
X49566Y-42038D01*
X49411Y-41884D01*
X49330Y-41850D01*
X49411Y-41816D01*
X49565Y-41661D01*
X49649Y-41459D01*
X49650Y-41241D01*
X49566Y-41038D01*
X49411Y-40884D01*
X49336Y-40852D01*
X49387Y-40831D01*
X49415Y-40735D01*
X49100Y-40420D01*
X49029Y-40491D01*
X49029Y-40350D01*
X48714Y-40034D01*
X48618Y-40062D01*
X48545Y-40268D01*
X48556Y-40486D01*
X48618Y-40637D01*
X48714Y-40665D01*
X49029Y-40350D01*
X49029Y-40491D01*
X48784Y-40735D01*
X48812Y-40831D01*
X48867Y-40850D01*
X48788Y-40883D01*
X48634Y-41038D01*
X48550Y-41240D01*
X48549Y-41458D01*
X48633Y-41661D01*
X48788Y-41815D01*
X48869Y-41849D01*
X48788Y-41883D01*
X48634Y-42038D01*
X48550Y-42240D01*
X48549Y-42458D01*
X48633Y-42661D01*
X48772Y-42799D01*
X48750Y-42799D01*
X48658Y-42837D01*
X48588Y-42908D01*
X48550Y-43000D01*
X48549Y-43099D01*
X48549Y-43699D01*
X48587Y-43791D01*
X48658Y-43861D01*
X48750Y-43899D01*
X48849Y-43900D01*
X49449Y-43900D01*
X49541Y-43862D01*
X49611Y-43791D01*
X49649Y-43699D01*
X49650Y-43600D01*
X49650Y-43000D01*
X49612Y-42908D01*
X49541Y-42838D01*
X49449Y-42800D01*
X49427Y-42800D01*
X49565Y-42661D01*
X49649Y-42459D01*
X49650Y-42241D01*
X49650Y-45472D01*
X49610Y-45377D01*
X49517Y-45352D01*
X49447Y-45423D01*
X49447Y-45282D01*
X49422Y-45189D01*
X49225Y-45120D01*
X49017Y-45131D01*
X48877Y-45189D01*
X48852Y-45282D01*
X49150Y-45579D01*
X49447Y-45282D01*
X49447Y-45423D01*
X49220Y-45650D01*
X49517Y-45947D01*
X49610Y-45922D01*
X49679Y-45725D01*
X49679Y-46845D01*
X49606Y-46918D01*
X49674Y-46754D01*
X49675Y-46546D01*
X49595Y-46353D01*
X49447Y-46205D01*
X49321Y-46152D01*
X49422Y-46110D01*
X49447Y-46017D01*
X49150Y-45720D01*
X49079Y-45791D01*
X49079Y-45650D01*
X48782Y-45352D01*
X48689Y-45377D01*
X48620Y-45574D01*
X48631Y-45782D01*
X48689Y-45922D01*
X48782Y-45947D01*
X49079Y-45650D01*
X49079Y-45791D01*
X48852Y-46017D01*
X48877Y-46110D01*
X48987Y-46149D01*
X48853Y-46204D01*
X48705Y-46352D01*
X48625Y-46545D01*
X48624Y-46750D01*
X48179Y-46750D01*
X48179Y-45725D01*
X48168Y-45517D01*
X48110Y-45377D01*
X48017Y-45352D01*
X47947Y-45423D01*
X47947Y-45282D01*
X47922Y-45189D01*
X47725Y-45120D01*
X47517Y-45131D01*
X47377Y-45189D01*
X47352Y-45282D01*
X47650Y-45579D01*
X47947Y-45282D01*
X47947Y-45423D01*
X47720Y-45650D01*
X48017Y-45947D01*
X48110Y-45922D01*
X48179Y-45725D01*
X48179Y-46750D01*
X48174Y-46750D01*
X48175Y-46546D01*
X48095Y-46353D01*
X47947Y-46205D01*
X47821Y-46152D01*
X47922Y-46110D01*
X47947Y-46017D01*
X47650Y-45720D01*
X47579Y-45791D01*
X47579Y-45650D01*
X47282Y-45352D01*
X47189Y-45377D01*
X47120Y-45574D01*
X47131Y-45782D01*
X47189Y-45922D01*
X47282Y-45947D01*
X47579Y-45650D01*
X47579Y-45791D01*
X47352Y-46017D01*
X47377Y-46110D01*
X47487Y-46149D01*
X47353Y-46204D01*
X47207Y-46350D01*
X47027Y-46350D01*
X47074Y-46234D01*
X47075Y-46065D01*
X47010Y-45909D01*
X46891Y-45789D01*
X46734Y-45725D01*
X46565Y-45724D01*
X46409Y-45789D01*
X46348Y-45850D01*
X46125Y-45850D01*
X46125Y-43546D01*
X46045Y-43353D01*
X45897Y-43205D01*
X45704Y-43125D01*
X45496Y-43124D01*
X45303Y-43204D01*
X45155Y-43352D01*
X45154Y-43353D01*
X45150Y-43348D01*
X45150Y-42801D01*
X45154Y-42796D01*
X45154Y-42797D01*
X45302Y-42944D01*
X45495Y-43024D01*
X45703Y-43025D01*
X45897Y-42945D01*
X46044Y-42797D01*
X46124Y-42604D01*
X46125Y-42396D01*
X46045Y-42203D01*
X45897Y-42055D01*
X45750Y-41993D01*
X45750Y-41150D01*
X45750Y-40450D01*
X45712Y-40358D01*
X45641Y-40288D01*
X45549Y-40250D01*
X45450Y-40249D01*
X44750Y-40249D01*
X44658Y-40287D01*
X44588Y-40358D01*
X44568Y-40404D01*
X44546Y-40382D01*
X44501Y-40427D01*
X44467Y-40327D01*
X44243Y-40245D01*
X44005Y-40255D01*
X43832Y-40327D01*
X43798Y-40427D01*
X44150Y-40779D01*
X44155Y-40773D01*
X44226Y-40844D01*
X44220Y-40850D01*
X44226Y-40855D01*
X44155Y-40926D01*
X44150Y-40920D01*
X44079Y-40991D01*
X44079Y-40850D01*
X43727Y-40498D01*
X43662Y-40520D01*
X43658Y-40510D01*
X43490Y-40341D01*
X43269Y-40250D01*
X43031Y-40249D01*
X42810Y-40341D01*
X42641Y-40509D01*
X42550Y-40730D01*
X42549Y-40968D01*
X42641Y-41189D01*
X42809Y-41358D01*
X43030Y-41449D01*
X43268Y-41450D01*
X43489Y-41358D01*
X43658Y-41190D01*
X43662Y-41179D01*
X43727Y-41201D01*
X44079Y-40850D01*
X44079Y-40991D01*
X43798Y-41272D01*
X43832Y-41372D01*
X44056Y-41454D01*
X44294Y-41444D01*
X44467Y-41372D01*
X44501Y-41272D01*
X44501Y-41272D01*
X44546Y-41317D01*
X44568Y-41295D01*
X44587Y-41341D01*
X44658Y-41411D01*
X44750Y-41449D01*
X44849Y-41450D01*
X45549Y-41450D01*
X45641Y-41412D01*
X45711Y-41341D01*
X45749Y-41249D01*
X45750Y-41150D01*
X45750Y-41993D01*
X45704Y-41975D01*
X45496Y-41974D01*
X45303Y-42054D01*
X45155Y-42202D01*
X45154Y-42203D01*
X45091Y-42139D01*
X44934Y-42075D01*
X44765Y-42074D01*
X44609Y-42139D01*
X44501Y-42247D01*
X44489Y-42258D01*
X44425Y-42415D01*
X44424Y-42584D01*
X44489Y-42740D01*
X44550Y-42801D01*
X44550Y-43348D01*
X44489Y-43408D01*
X44425Y-43565D01*
X44424Y-43734D01*
X44489Y-43890D01*
X44608Y-44010D01*
X44765Y-44074D01*
X44934Y-44075D01*
X45090Y-44010D01*
X45154Y-43946D01*
X45154Y-43947D01*
X45302Y-44094D01*
X45495Y-44174D01*
X45703Y-44175D01*
X45897Y-44095D01*
X46044Y-43947D01*
X46124Y-43754D01*
X46125Y-43546D01*
X46125Y-45850D01*
X43451Y-45850D01*
X43391Y-45789D01*
X43234Y-45725D01*
X43129Y-45724D01*
X43129Y-43725D01*
X43125Y-43637D01*
X43125Y-42396D01*
X43045Y-42203D01*
X42897Y-42055D01*
X42704Y-41975D01*
X42496Y-41974D01*
X42303Y-42054D01*
X42155Y-42202D01*
X42075Y-42395D01*
X42074Y-42603D01*
X42154Y-42797D01*
X42302Y-42944D01*
X42495Y-43024D01*
X42703Y-43025D01*
X42897Y-42945D01*
X43044Y-42797D01*
X43124Y-42604D01*
X43125Y-42396D01*
X43125Y-43637D01*
X43118Y-43517D01*
X43060Y-43377D01*
X42967Y-43352D01*
X42897Y-43423D01*
X42897Y-43282D01*
X42872Y-43189D01*
X42675Y-43120D01*
X42467Y-43131D01*
X42327Y-43189D01*
X42302Y-43282D01*
X42600Y-43579D01*
X42897Y-43282D01*
X42897Y-43423D01*
X42670Y-43650D01*
X42967Y-43947D01*
X43060Y-43922D01*
X43129Y-43725D01*
X43129Y-45724D01*
X43065Y-45724D01*
X42909Y-45789D01*
X42897Y-45801D01*
X42897Y-44017D01*
X42600Y-43720D01*
X42529Y-43791D01*
X42529Y-43650D01*
X42232Y-43352D01*
X42139Y-43377D01*
X42070Y-43574D01*
X42081Y-43782D01*
X42139Y-43922D01*
X42232Y-43947D01*
X42529Y-43650D01*
X42529Y-43791D01*
X42302Y-44017D01*
X42327Y-44110D01*
X42524Y-44179D01*
X42732Y-44168D01*
X42872Y-44110D01*
X42897Y-44017D01*
X42897Y-45801D01*
X42789Y-45908D01*
X42725Y-46065D01*
X42724Y-46234D01*
X42789Y-46390D01*
X42908Y-46510D01*
X43065Y-46574D01*
X43234Y-46575D01*
X43390Y-46510D01*
X43451Y-46450D01*
X44472Y-46450D01*
X44425Y-46565D01*
X44424Y-46734D01*
X44489Y-46890D01*
X44608Y-47010D01*
X44765Y-47074D01*
X44934Y-47075D01*
X45090Y-47010D01*
X45151Y-46950D01*
X47207Y-46950D01*
X47352Y-47094D01*
X47545Y-47174D01*
X47750Y-47175D01*
X47837Y-47262D01*
X47837Y-47262D01*
X47935Y-47327D01*
X48049Y-47349D01*
X48050Y-47350D01*
X48675Y-47350D01*
X48837Y-47512D01*
X48837Y-47512D01*
X48935Y-47577D01*
X49050Y-47600D01*
X49650Y-47600D01*
X49650Y-47599D01*
X49764Y-47577D01*
X49764Y-47577D01*
X49862Y-47512D01*
X50212Y-47162D01*
X50212Y-47162D01*
X50277Y-47064D01*
X50299Y-46950D01*
X50300Y-46950D01*
X50300Y-46774D01*
X50503Y-46775D01*
X50697Y-46695D01*
X50750Y-46642D01*
X50750Y-47275D01*
X49775Y-48250D01*
X48968Y-48250D01*
X49029Y-48075D01*
X49018Y-47867D01*
X48960Y-47727D01*
X48867Y-47702D01*
X48797Y-47773D01*
X48797Y-47632D01*
X48772Y-47539D01*
X48575Y-47470D01*
X48367Y-47481D01*
X48227Y-47539D01*
X48202Y-47632D01*
X48500Y-47929D01*
X48797Y-47632D01*
X48797Y-47773D01*
X48570Y-48000D01*
X48576Y-48005D01*
X48505Y-48076D01*
X48500Y-48070D01*
X48494Y-48076D01*
X48423Y-48005D01*
X48429Y-48000D01*
X48132Y-47702D01*
X48039Y-47727D01*
X47970Y-47924D01*
X47981Y-48132D01*
X48030Y-48250D01*
X47641Y-48250D01*
X47699Y-48109D01*
X47700Y-47891D01*
X47616Y-47688D01*
X47461Y-47534D01*
X47259Y-47450D01*
X47041Y-47449D01*
X46838Y-47533D01*
X46684Y-47688D01*
X46650Y-47769D01*
X46616Y-47688D01*
X46461Y-47534D01*
X46259Y-47450D01*
X46041Y-47449D01*
X45838Y-47533D01*
X45684Y-47688D01*
X45650Y-47769D01*
X45616Y-47688D01*
X45461Y-47534D01*
X45259Y-47450D01*
X45041Y-47449D01*
X44838Y-47533D01*
X44684Y-47688D01*
X44650Y-47769D01*
X44616Y-47688D01*
X44461Y-47534D01*
X44259Y-47450D01*
X44041Y-47449D01*
X43838Y-47533D01*
X43684Y-47688D01*
X43650Y-47769D01*
X43616Y-47688D01*
X43461Y-47534D01*
X43259Y-47450D01*
X43041Y-47449D01*
X42838Y-47533D01*
X42699Y-47672D01*
X42699Y-47650D01*
X42661Y-47558D01*
X42591Y-47487D01*
X42499Y-47449D01*
X42262Y-47450D01*
X42200Y-47512D01*
X42200Y-47950D01*
X42207Y-47950D01*
X42207Y-48050D01*
X42200Y-48050D01*
X42200Y-48487D01*
X42262Y-48550D01*
X42499Y-48550D01*
X42591Y-48512D01*
X42661Y-48441D01*
X42699Y-48349D01*
X42699Y-48327D01*
X42838Y-48465D01*
X43040Y-48549D01*
X43258Y-48550D01*
X43461Y-48466D01*
X43615Y-48311D01*
X43649Y-48230D01*
X43683Y-48311D01*
X43838Y-48465D01*
X44040Y-48549D01*
X44258Y-48550D01*
X44461Y-48466D01*
X44615Y-48311D01*
X44649Y-48230D01*
X44683Y-48311D01*
X44838Y-48465D01*
X45040Y-48549D01*
X45258Y-48550D01*
X45270Y-48545D01*
X45487Y-48762D01*
X45487Y-48762D01*
X45585Y-48827D01*
X45700Y-48850D01*
X49900Y-48850D01*
X49900Y-48849D01*
X50014Y-48827D01*
X50014Y-48827D01*
X50112Y-48762D01*
X50975Y-47899D01*
X50974Y-48103D01*
X51054Y-48297D01*
X51202Y-48444D01*
X51395Y-48524D01*
X51603Y-48525D01*
X51797Y-48445D01*
X51944Y-48297D01*
X52024Y-48104D01*
X52025Y-47899D01*
X52274Y-47650D01*
X52346Y-47650D01*
X52288Y-47708D01*
X52250Y-47800D01*
X52249Y-47899D01*
X52249Y-48499D01*
X52287Y-48591D01*
X52358Y-48661D01*
X52450Y-48699D01*
X52549Y-48700D01*
X53149Y-48700D01*
X53241Y-48662D01*
X53311Y-48591D01*
X53349Y-48499D01*
X53349Y-48477D01*
X53488Y-48615D01*
X53690Y-48699D01*
X53908Y-48700D01*
X54111Y-48616D01*
X54265Y-48461D01*
X54349Y-48259D01*
X54350Y-48041D01*
X54350Y-48930D01*
X42100Y-48930D01*
X42100Y-48487D01*
X42100Y-48050D01*
X42100Y-47950D01*
X42100Y-47512D01*
X42037Y-47450D01*
X41975Y-47449D01*
X41975Y-43146D01*
X41895Y-42953D01*
X41747Y-42805D01*
X41554Y-42725D01*
X41346Y-42724D01*
X41153Y-42804D01*
X41005Y-42952D01*
X40952Y-43078D01*
X40910Y-42977D01*
X40817Y-42952D01*
X40747Y-43023D01*
X40747Y-42882D01*
X40722Y-42789D01*
X40525Y-42720D01*
X40317Y-42731D01*
X40177Y-42789D01*
X40152Y-42882D01*
X40450Y-43179D01*
X40747Y-42882D01*
X40747Y-43023D01*
X40520Y-43250D01*
X40817Y-43547D01*
X40910Y-43522D01*
X40949Y-43412D01*
X41004Y-43547D01*
X41152Y-43694D01*
X41345Y-43774D01*
X41553Y-43775D01*
X41747Y-43695D01*
X41894Y-43547D01*
X41974Y-43354D01*
X41975Y-43146D01*
X41975Y-47449D01*
X41800Y-47449D01*
X41708Y-47487D01*
X41638Y-47558D01*
X41600Y-47650D01*
X41599Y-47749D01*
X41600Y-47887D01*
X41662Y-47950D01*
X42100Y-47950D01*
X42100Y-48050D01*
X41662Y-48050D01*
X41600Y-48112D01*
X41599Y-48250D01*
X41600Y-48349D01*
X41638Y-48441D01*
X41708Y-48512D01*
X41800Y-48550D01*
X42037Y-48550D01*
X42100Y-48487D01*
X42100Y-48930D01*
X41504Y-48930D01*
X41504Y-46381D01*
X41500Y-46287D01*
X41500Y-45550D01*
X41500Y-44950D01*
X41462Y-44858D01*
X41391Y-44788D01*
X41299Y-44750D01*
X41200Y-44749D01*
X40747Y-44749D01*
X40747Y-43617D01*
X40450Y-43320D01*
X40379Y-43391D01*
X40379Y-43250D01*
X40082Y-42952D01*
X39989Y-42977D01*
X39920Y-43174D01*
X39931Y-43382D01*
X39989Y-43522D01*
X40082Y-43547D01*
X40379Y-43250D01*
X40379Y-43391D01*
X40152Y-43617D01*
X40177Y-43710D01*
X40374Y-43779D01*
X40582Y-43768D01*
X40722Y-43710D01*
X40747Y-43617D01*
X40747Y-44749D01*
X40600Y-44749D01*
X40508Y-44787D01*
X40438Y-44858D01*
X40400Y-44950D01*
X40399Y-45049D01*
X40399Y-45649D01*
X40437Y-45741D01*
X40508Y-45811D01*
X40600Y-45849D01*
X40653Y-45850D01*
X40634Y-45914D01*
X40950Y-46229D01*
X41265Y-45914D01*
X41246Y-45850D01*
X41299Y-45850D01*
X41391Y-45812D01*
X41461Y-45741D01*
X41499Y-45649D01*
X41500Y-45550D01*
X41500Y-46287D01*
X41493Y-46163D01*
X41431Y-46012D01*
X41335Y-45984D01*
X41020Y-46300D01*
X41335Y-46615D01*
X41431Y-46587D01*
X41504Y-46381D01*
X41504Y-48930D01*
X41265Y-48930D01*
X41265Y-46685D01*
X40950Y-46370D01*
X40879Y-46441D01*
X40879Y-46300D01*
X40564Y-45984D01*
X40468Y-46012D01*
X40395Y-46218D01*
X40406Y-46436D01*
X40468Y-46587D01*
X40564Y-46615D01*
X40879Y-46300D01*
X40879Y-46441D01*
X40634Y-46685D01*
X40662Y-46781D01*
X40868Y-46854D01*
X41086Y-46843D01*
X41237Y-46781D01*
X41265Y-46685D01*
X41265Y-48930D01*
X39669Y-48930D01*
X39669Y-41800D01*
X39692Y-41855D01*
X40042Y-42206D01*
X40500Y-42396D01*
X40996Y-42397D01*
X41455Y-42207D01*
X41806Y-41857D01*
X41996Y-41399D01*
X41997Y-40903D01*
X41807Y-40444D01*
X41457Y-40093D01*
X40999Y-39903D01*
X40503Y-39902D01*
X40044Y-40092D01*
X39693Y-40442D01*
X39669Y-40500D01*
X39669Y-39669D01*
X58730Y-39669D01*
X58730Y-40620D01*
X58657Y-40444D01*
X58307Y-40093D01*
X57849Y-39903D01*
X57353Y-39902D01*
X56894Y-40092D01*
X56543Y-40442D01*
X56353Y-40900D01*
X56352Y-41396D01*
X56542Y-41855D01*
X56892Y-42206D01*
X57350Y-42396D01*
X57846Y-42397D01*
X58305Y-42207D01*
X58656Y-41857D01*
X58730Y-41679D01*
X58730Y-47041D01*
X58607Y-46744D01*
X58257Y-46393D01*
X57799Y-46203D01*
X57303Y-46202D01*
X56844Y-46392D01*
X56493Y-46742D01*
X56350Y-47088D01*
X56350Y-44101D01*
X56236Y-43825D01*
X56025Y-43614D01*
X56016Y-43611D01*
X56065Y-43561D01*
X56149Y-43359D01*
X56150Y-43141D01*
X56066Y-42938D01*
X56016Y-42889D01*
X56024Y-42886D01*
X56235Y-42675D01*
X56349Y-42399D01*
X56350Y-42101D01*
X56236Y-41825D01*
X56025Y-41614D01*
X55749Y-41500D01*
X55451Y-41499D01*
X55175Y-41613D01*
X54964Y-41824D01*
X54850Y-42100D01*
X54849Y-42398D01*
X54963Y-42674D01*
X55174Y-42885D01*
X55183Y-42888D01*
X55134Y-42938D01*
X55050Y-43140D01*
X55049Y-43358D01*
X55133Y-43561D01*
X55183Y-43610D01*
X55175Y-43613D01*
X54964Y-43824D01*
X54850Y-44100D01*
X54849Y-44398D01*
X54963Y-44674D01*
X55173Y-44884D01*
X55168Y-44889D01*
X55214Y-44934D01*
X55118Y-44962D01*
X55045Y-45168D01*
X55056Y-45386D01*
X55103Y-45499D01*
X55050Y-45499D01*
X54958Y-45537D01*
X54888Y-45608D01*
X54850Y-45700D01*
X54849Y-45799D01*
X54850Y-46137D01*
X54912Y-46200D01*
X55550Y-46200D01*
X55550Y-46192D01*
X55650Y-46192D01*
X55650Y-46200D01*
X56287Y-46200D01*
X56350Y-46137D01*
X56350Y-45799D01*
X56349Y-45700D01*
X56311Y-45608D01*
X56241Y-45537D01*
X56149Y-45499D01*
X56094Y-45499D01*
X56154Y-45331D01*
X56143Y-45113D01*
X56081Y-44962D01*
X55985Y-44934D01*
X56031Y-44889D01*
X56026Y-44884D01*
X56235Y-44675D01*
X56349Y-44399D01*
X56350Y-44101D01*
X56350Y-47088D01*
X56350Y-47088D01*
X56350Y-46700D01*
X56350Y-46362D01*
X56287Y-46300D01*
X55650Y-46300D01*
X55650Y-46937D01*
X55712Y-47000D01*
X56149Y-47000D01*
X56241Y-46962D01*
X56311Y-46891D01*
X56349Y-46799D01*
X56350Y-46700D01*
X56350Y-47088D01*
X56303Y-47200D01*
X56302Y-47696D01*
X56492Y-48155D01*
X56842Y-48506D01*
X57300Y-48696D01*
X57796Y-48697D01*
X58255Y-48507D01*
X58606Y-48157D01*
X58730Y-47858D01*
X58730Y-48930D01*
M02*
