G04 (created by PCBNEW (2013-june-11)-stable) date Sun 07 Dec 2014 09:31:45 PM EST*
%MOIN*%
G04 Gerber Fmt 3.4, Leading zero omitted, Abs format*
%FSLAX34Y34*%
G01*
G70*
G90*
G04 APERTURE LIST*
%ADD10C,0.00590551*%
%ADD11C,0.19937*%
%ADD12C,0.06*%
%ADD13C,0.1*%
%ADD14R,0.1X0.1*%
%ADD15R,0.06X0.06*%
%ADD16C,0.07*%
%ADD17R,0.07X0.07*%
%ADD18C,0.055*%
%ADD19R,0.055X0.055*%
%ADD20C,0.035*%
%ADD21C,0.01*%
%ADD22C,0.05*%
G04 APERTURE END LIST*
G54D10*
G54D11*
X40750Y-41150D03*
X57600Y-41150D03*
X57550Y-47450D03*
G54D12*
X55600Y-43250D03*
G54D13*
X55600Y-44250D03*
G54D14*
X55600Y-46250D03*
G54D13*
X55600Y-42250D03*
G54D12*
X55600Y-45250D03*
G54D15*
X52800Y-48150D03*
G54D12*
X53800Y-48150D03*
G54D16*
X43150Y-40850D03*
X44150Y-40850D03*
G54D17*
X45150Y-40850D03*
G54D16*
X51200Y-40900D03*
X52200Y-40900D03*
G54D17*
X53200Y-40900D03*
G54D18*
X45600Y-43650D03*
X42600Y-43650D03*
X51500Y-48000D03*
X48500Y-48000D03*
G54D15*
X49100Y-43350D03*
G54D12*
X49100Y-42350D03*
X49100Y-41350D03*
X49100Y-40350D03*
G54D15*
X42150Y-48000D03*
G54D12*
X43150Y-48000D03*
X44150Y-48000D03*
X45150Y-48000D03*
X46150Y-48000D03*
X47150Y-48000D03*
G54D18*
X41450Y-43250D03*
X40450Y-43250D03*
X47650Y-46650D03*
X47650Y-45650D03*
G54D19*
X53400Y-46250D03*
G54D18*
X53400Y-45250D03*
X53400Y-44250D03*
X53400Y-43250D03*
X50400Y-43250D03*
X50400Y-44250D03*
X50400Y-45250D03*
X50400Y-46250D03*
X49150Y-45650D03*
X49150Y-46650D03*
G54D15*
X40950Y-45300D03*
G54D12*
X40950Y-46300D03*
G54D18*
X42600Y-42500D03*
X45600Y-42500D03*
G54D20*
X43150Y-46150D03*
X46650Y-46150D03*
X44850Y-42500D03*
X44850Y-43650D03*
X44850Y-46650D03*
G54D21*
X41450Y-43250D02*
X41850Y-43250D01*
X41850Y-43250D02*
X42600Y-42500D01*
X49100Y-42350D02*
X48350Y-42350D01*
X48350Y-42350D02*
X47600Y-43100D01*
X47600Y-43100D02*
X43200Y-43100D01*
X43200Y-43100D02*
X42600Y-42500D01*
X49100Y-42350D02*
X49100Y-43350D01*
G54D22*
X49100Y-43350D02*
X49100Y-42350D01*
G54D21*
X40950Y-45300D02*
X40950Y-45200D01*
X41450Y-44700D02*
X41450Y-43250D01*
X40950Y-45200D02*
X41450Y-44700D01*
X41450Y-43250D02*
X41450Y-42200D01*
X42800Y-40850D02*
X43150Y-40850D01*
X41450Y-42200D02*
X42800Y-40850D01*
X53400Y-44250D02*
X55600Y-44250D01*
X53400Y-45250D02*
X53700Y-45250D01*
X54000Y-47950D02*
X53800Y-48150D01*
X54000Y-45550D02*
X54000Y-47950D01*
X53700Y-45250D02*
X54000Y-45550D01*
X45600Y-42500D02*
X47100Y-42500D01*
X48250Y-41350D02*
X49100Y-41350D01*
X47100Y-42500D02*
X48250Y-41350D01*
G54D22*
X52200Y-40900D02*
X52200Y-40450D01*
X49500Y-41350D02*
X49100Y-41350D01*
X50800Y-40050D02*
X49500Y-41350D01*
X51800Y-40050D02*
X50800Y-40050D01*
X52200Y-40450D02*
X51800Y-40050D01*
G54D21*
X50400Y-43250D02*
X50350Y-43250D01*
X49350Y-45150D02*
X46150Y-45150D01*
X49950Y-44550D02*
X49350Y-45150D01*
X49950Y-43650D02*
X49950Y-44550D01*
X50350Y-43250D02*
X49950Y-43650D01*
X46150Y-48000D02*
X46150Y-45150D01*
X46150Y-45150D02*
X46150Y-45150D01*
X46150Y-45150D02*
X45600Y-44600D01*
X45600Y-44600D02*
X45600Y-43650D01*
X51200Y-40900D02*
X50400Y-41700D01*
X50400Y-41700D02*
X50400Y-43250D01*
X50400Y-45250D02*
X50350Y-45250D01*
X43150Y-47850D02*
X43150Y-48000D01*
X43150Y-46150D02*
X43150Y-47850D01*
X43150Y-46150D02*
X43150Y-46150D01*
X49450Y-46150D02*
X46650Y-46150D01*
X50350Y-45250D02*
X49450Y-46150D01*
X44850Y-46650D02*
X44850Y-43650D01*
X45150Y-41800D02*
X45150Y-40850D01*
X44850Y-42100D02*
X45150Y-41800D01*
X44850Y-42500D02*
X44850Y-42100D01*
X44150Y-47650D02*
X44150Y-48000D01*
X44850Y-46650D02*
X44150Y-47650D01*
X52800Y-48150D02*
X52800Y-48600D01*
X56400Y-43050D02*
X55600Y-42250D01*
X56400Y-46800D02*
X56400Y-43050D01*
X56200Y-47000D02*
X56400Y-46800D01*
X55100Y-47000D02*
X56200Y-47000D01*
X54650Y-47450D02*
X55100Y-47000D01*
X54650Y-48650D02*
X54650Y-47450D01*
X54600Y-48700D02*
X54650Y-48650D01*
X52900Y-48700D02*
X54600Y-48700D01*
X52800Y-48600D02*
X52900Y-48700D01*
X55600Y-42250D02*
X55600Y-43250D01*
X52450Y-48150D02*
X52800Y-48150D01*
X51550Y-47250D02*
X52450Y-48150D01*
X50800Y-47250D02*
X51550Y-47250D01*
X50400Y-46250D02*
X50400Y-46850D01*
X50400Y-46850D02*
X50800Y-47250D01*
X49150Y-46650D02*
X49450Y-46650D01*
X52650Y-46250D02*
X53400Y-46250D01*
X52200Y-45800D02*
X52650Y-46250D01*
X50200Y-45800D02*
X52200Y-45800D01*
X49950Y-46050D02*
X50200Y-45800D01*
X49950Y-46150D02*
X49950Y-46050D01*
X49450Y-46650D02*
X49950Y-46150D01*
X47150Y-48000D02*
X47600Y-48000D01*
X49150Y-47050D02*
X49150Y-46650D01*
X48850Y-47350D02*
X49150Y-47050D01*
X48250Y-47350D02*
X48850Y-47350D01*
X47600Y-48000D02*
X48250Y-47350D01*
M02*
