G04 (created by PCBNEW (2013-june-11)-stable) date Sun 07 Dec 2014 11:04:29 PM EST*
%MOIN*%
G04 Gerber Fmt 3.4, Leading zero omitted, Abs format*
%FSLAX34Y34*%
G01*
G70*
G90*
G04 APERTURE LIST*
%ADD10C,0.00590551*%
%ADD11C,0.00492126*%
%ADD12C,0.011811*%
%ADD13C,0.015*%
%ADD14C,0.006*%
%ADD15C,0.008*%
%ADD16C,0.01*%
%ADD17C,0.012*%
%ADD18C,0.005*%
%ADD19C,0.0075*%
%ADD20C,0.01125*%
G04 APERTURE END LIST*
G54D10*
G54D11*
X42045Y-48742D02*
X42026Y-48732D01*
X41998Y-48732D01*
X41970Y-48742D01*
X41951Y-48760D01*
X41942Y-48779D01*
X41933Y-48817D01*
X41933Y-48845D01*
X41942Y-48882D01*
X41951Y-48901D01*
X41970Y-48920D01*
X41998Y-48929D01*
X42017Y-48929D01*
X42045Y-48920D01*
X42055Y-48910D01*
X42055Y-48845D01*
X42017Y-48845D01*
X42139Y-48929D02*
X42139Y-48732D01*
X42251Y-48929D01*
X42251Y-48732D01*
X42345Y-48929D02*
X42345Y-48732D01*
X42392Y-48732D01*
X42420Y-48742D01*
X42439Y-48760D01*
X42448Y-48779D01*
X42458Y-48817D01*
X42458Y-48845D01*
X42448Y-48882D01*
X42439Y-48901D01*
X42420Y-48920D01*
X42392Y-48929D01*
X42345Y-48929D01*
X42983Y-48920D02*
X43011Y-48929D01*
X43058Y-48929D01*
X43076Y-48920D01*
X43086Y-48910D01*
X43095Y-48892D01*
X43095Y-48873D01*
X43086Y-48854D01*
X43076Y-48845D01*
X43058Y-48835D01*
X43020Y-48826D01*
X43001Y-48817D01*
X42992Y-48807D01*
X42983Y-48789D01*
X42983Y-48770D01*
X42992Y-48751D01*
X43001Y-48742D01*
X43020Y-48732D01*
X43067Y-48732D01*
X43095Y-48742D01*
X43292Y-48910D02*
X43282Y-48920D01*
X43254Y-48929D01*
X43236Y-48929D01*
X43208Y-48920D01*
X43189Y-48901D01*
X43179Y-48882D01*
X43170Y-48845D01*
X43170Y-48817D01*
X43179Y-48779D01*
X43189Y-48760D01*
X43208Y-48742D01*
X43236Y-48732D01*
X43254Y-48732D01*
X43282Y-48742D01*
X43292Y-48751D01*
X43376Y-48929D02*
X43376Y-48732D01*
X43489Y-48929D02*
X43404Y-48817D01*
X43489Y-48732D02*
X43376Y-48845D01*
X43995Y-48732D02*
X44061Y-48929D01*
X44126Y-48732D01*
X44304Y-48910D02*
X44295Y-48920D01*
X44267Y-48929D01*
X44248Y-48929D01*
X44220Y-48920D01*
X44201Y-48901D01*
X44192Y-48882D01*
X44182Y-48845D01*
X44182Y-48817D01*
X44192Y-48779D01*
X44201Y-48760D01*
X44220Y-48742D01*
X44248Y-48732D01*
X44267Y-48732D01*
X44295Y-48742D01*
X44304Y-48751D01*
X44501Y-48910D02*
X44492Y-48920D01*
X44464Y-48929D01*
X44445Y-48929D01*
X44417Y-48920D01*
X44398Y-48901D01*
X44389Y-48882D01*
X44379Y-48845D01*
X44379Y-48817D01*
X44389Y-48779D01*
X44398Y-48760D01*
X44417Y-48742D01*
X44445Y-48732D01*
X44464Y-48732D01*
X44492Y-48742D01*
X44501Y-48751D01*
X44735Y-48929D02*
X44735Y-48732D01*
X44801Y-48873D01*
X44867Y-48732D01*
X44867Y-48929D01*
X44960Y-48929D02*
X44960Y-48732D01*
X45045Y-48920D02*
X45073Y-48929D01*
X45120Y-48929D01*
X45139Y-48920D01*
X45148Y-48910D01*
X45157Y-48892D01*
X45157Y-48873D01*
X45148Y-48854D01*
X45139Y-48845D01*
X45120Y-48835D01*
X45082Y-48826D01*
X45064Y-48817D01*
X45054Y-48807D01*
X45045Y-48789D01*
X45045Y-48770D01*
X45054Y-48751D01*
X45064Y-48742D01*
X45082Y-48732D01*
X45129Y-48732D01*
X45157Y-48742D01*
X45279Y-48732D02*
X45317Y-48732D01*
X45335Y-48742D01*
X45354Y-48760D01*
X45363Y-48798D01*
X45363Y-48864D01*
X45354Y-48901D01*
X45335Y-48920D01*
X45317Y-48929D01*
X45279Y-48929D01*
X45260Y-48920D01*
X45242Y-48901D01*
X45232Y-48864D01*
X45232Y-48798D01*
X45242Y-48760D01*
X45260Y-48742D01*
X45279Y-48732D01*
X45748Y-48929D02*
X45748Y-48732D01*
X45813Y-48873D01*
X45879Y-48732D01*
X45879Y-48929D01*
X46010Y-48732D02*
X46048Y-48732D01*
X46067Y-48742D01*
X46085Y-48760D01*
X46095Y-48798D01*
X46095Y-48864D01*
X46085Y-48901D01*
X46067Y-48920D01*
X46048Y-48929D01*
X46010Y-48929D01*
X45992Y-48920D01*
X45973Y-48901D01*
X45963Y-48864D01*
X45963Y-48798D01*
X45973Y-48760D01*
X45992Y-48742D01*
X46010Y-48732D01*
X46170Y-48920D02*
X46198Y-48929D01*
X46245Y-48929D01*
X46263Y-48920D01*
X46273Y-48910D01*
X46282Y-48892D01*
X46282Y-48873D01*
X46273Y-48854D01*
X46263Y-48845D01*
X46245Y-48835D01*
X46207Y-48826D01*
X46188Y-48817D01*
X46179Y-48807D01*
X46170Y-48789D01*
X46170Y-48770D01*
X46179Y-48751D01*
X46188Y-48742D01*
X46207Y-48732D01*
X46254Y-48732D01*
X46282Y-48742D01*
X46366Y-48929D02*
X46366Y-48732D01*
X46873Y-48929D02*
X46807Y-48835D01*
X46760Y-48929D02*
X46760Y-48732D01*
X46835Y-48732D01*
X46854Y-48742D01*
X46863Y-48751D01*
X46873Y-48770D01*
X46873Y-48798D01*
X46863Y-48817D01*
X46854Y-48826D01*
X46835Y-48835D01*
X46760Y-48835D01*
X46957Y-48826D02*
X47023Y-48826D01*
X47051Y-48929D02*
X46957Y-48929D01*
X46957Y-48732D01*
X47051Y-48732D01*
X47126Y-48920D02*
X47154Y-48929D01*
X47201Y-48929D01*
X47220Y-48920D01*
X47229Y-48910D01*
X47238Y-48892D01*
X47238Y-48873D01*
X47229Y-48854D01*
X47220Y-48845D01*
X47201Y-48835D01*
X47163Y-48826D01*
X47145Y-48817D01*
X47135Y-48807D01*
X47126Y-48789D01*
X47126Y-48770D01*
X47135Y-48751D01*
X47145Y-48742D01*
X47163Y-48732D01*
X47210Y-48732D01*
X47238Y-48742D01*
X47323Y-48826D02*
X47388Y-48826D01*
X47416Y-48929D02*
X47323Y-48929D01*
X47323Y-48732D01*
X47416Y-48732D01*
X47473Y-48732D02*
X47585Y-48732D01*
X47529Y-48929D02*
X47529Y-48732D01*
X46713Y-48658D02*
X47604Y-48658D01*
G54D12*
X47567Y-41589D02*
X47285Y-41589D01*
X47285Y-40998D01*
X47764Y-41364D02*
X48214Y-41364D01*
X47567Y-42589D02*
X47285Y-42589D01*
X47285Y-41998D01*
X47764Y-42364D02*
X48214Y-42364D01*
X47989Y-42589D02*
X47989Y-42139D01*
X47475Y-43364D02*
X47924Y-43364D01*
X47700Y-43589D02*
X47700Y-43139D01*
X47525Y-40264D02*
X47974Y-40264D01*
G54D13*
X41650Y-41150D02*
G75*
G03X41650Y-41150I-900J0D01*
G74*
G01*
X58500Y-41150D02*
G75*
G03X58500Y-41150I-900J0D01*
G74*
G01*
X58450Y-47450D02*
G75*
G03X58450Y-47450I-900J0D01*
G74*
G01*
X54600Y-48250D02*
X54600Y-40250D01*
X54600Y-40250D02*
X57600Y-40250D01*
X57600Y-40250D02*
X58600Y-40250D01*
X58600Y-40250D02*
X58600Y-48250D01*
X58600Y-48250D02*
X54600Y-48250D01*
X41625Y-41150D02*
G75*
G03X41625Y-41150I-900J0D01*
G74*
G01*
G54D14*
X52300Y-48650D02*
X52300Y-47650D01*
X52300Y-47650D02*
X54300Y-47650D01*
X54300Y-47650D02*
X54300Y-48650D01*
X54300Y-48650D02*
X52300Y-48650D01*
G54D13*
X42150Y-40100D02*
X42150Y-39850D01*
X42150Y-39850D02*
X46150Y-39850D01*
X46150Y-39850D02*
X46150Y-40100D01*
X42150Y-41600D02*
X42150Y-40100D01*
X42150Y-40100D02*
X46150Y-40100D01*
X46150Y-40100D02*
X46150Y-41600D01*
X46150Y-41600D02*
X42150Y-41600D01*
X50200Y-40150D02*
X50200Y-39900D01*
X50200Y-39900D02*
X54200Y-39900D01*
X54200Y-39900D02*
X54200Y-40150D01*
X50200Y-41650D02*
X50200Y-40150D01*
X50200Y-40150D02*
X54200Y-40150D01*
X54200Y-40150D02*
X54200Y-41650D01*
X54200Y-41650D02*
X50200Y-41650D01*
G54D15*
X45600Y-43650D02*
X45400Y-43650D01*
X42600Y-43650D02*
X42800Y-43650D01*
X42800Y-43650D02*
X42800Y-44050D01*
X42800Y-44050D02*
X45400Y-44050D01*
X45400Y-44050D02*
X45400Y-43250D01*
X45400Y-43250D02*
X42800Y-43250D01*
X42800Y-43250D02*
X42800Y-43650D01*
X45400Y-43850D02*
X45200Y-44050D01*
X51500Y-48000D02*
X51300Y-48000D01*
X48500Y-48000D02*
X48700Y-48000D01*
X48700Y-48000D02*
X48700Y-48400D01*
X48700Y-48400D02*
X51300Y-48400D01*
X51300Y-48400D02*
X51300Y-47600D01*
X51300Y-47600D02*
X48700Y-47600D01*
X48700Y-47600D02*
X48700Y-48000D01*
X51300Y-48200D02*
X51100Y-48400D01*
G54D16*
X49600Y-39850D02*
X49600Y-43850D01*
X48600Y-39850D02*
X48600Y-43850D01*
X48600Y-43850D02*
X49600Y-43850D01*
X49600Y-39850D02*
X48600Y-39850D01*
G54D17*
X41650Y-48500D02*
X41650Y-47500D01*
X41650Y-47500D02*
X47650Y-47500D01*
X47650Y-47500D02*
X47650Y-48500D01*
X47650Y-48500D02*
X41650Y-48500D01*
X42650Y-48500D02*
X42650Y-47500D01*
X41930Y-43750D02*
X39950Y-43750D01*
X39950Y-43750D02*
X39950Y-42750D01*
X39950Y-42750D02*
X41950Y-42750D01*
X41950Y-42750D02*
X41950Y-43750D01*
X41950Y-43500D02*
X41700Y-43750D01*
X47150Y-47130D02*
X47150Y-45150D01*
X47150Y-45150D02*
X48150Y-45150D01*
X48150Y-45150D02*
X48150Y-47150D01*
X48150Y-47150D02*
X47150Y-47150D01*
X47400Y-47150D02*
X47150Y-46900D01*
G54D16*
X51400Y-46750D02*
X51400Y-46250D01*
X51400Y-46250D02*
X52400Y-46250D01*
X52400Y-46250D02*
X52400Y-46750D01*
X50900Y-46750D02*
X50900Y-42750D01*
X50900Y-42750D02*
X52900Y-42750D01*
X52900Y-42750D02*
X52900Y-46750D01*
X52900Y-46750D02*
X50900Y-46750D01*
G54D17*
X49650Y-45170D02*
X49650Y-47150D01*
X49650Y-47150D02*
X48650Y-47150D01*
X48650Y-47150D02*
X48650Y-45150D01*
X48650Y-45150D02*
X49650Y-45150D01*
X49400Y-45150D02*
X49650Y-45400D01*
G54D18*
X42200Y-45800D02*
G75*
G03X42200Y-45800I-1250J0D01*
G74*
G01*
G54D15*
X42600Y-42500D02*
X42800Y-42500D01*
X45600Y-42500D02*
X45400Y-42500D01*
X45400Y-42500D02*
X45400Y-42100D01*
X45400Y-42100D02*
X42800Y-42100D01*
X42800Y-42100D02*
X42800Y-42900D01*
X42800Y-42900D02*
X45400Y-42900D01*
X45400Y-42900D02*
X45400Y-42500D01*
X42800Y-42300D02*
X43000Y-42100D01*
X49100Y-44450D02*
X48900Y-44450D01*
X46100Y-44450D02*
X46300Y-44450D01*
X46300Y-44450D02*
X46300Y-44850D01*
X46300Y-44850D02*
X48900Y-44850D01*
X48900Y-44850D02*
X48900Y-44050D01*
X48900Y-44050D02*
X46300Y-44050D01*
X46300Y-44050D02*
X46300Y-44450D01*
X48900Y-44650D02*
X48700Y-44850D01*
G54D17*
X50450Y-42050D02*
X50750Y-42050D01*
X50750Y-42050D02*
X50750Y-42450D01*
X50750Y-42450D02*
X53150Y-42450D01*
X53150Y-42450D02*
X53150Y-42050D01*
X53150Y-42050D02*
X53450Y-42050D01*
X53150Y-42050D02*
X53150Y-41650D01*
X53150Y-41650D02*
X50750Y-41650D01*
X50750Y-41650D02*
X50750Y-42050D01*
X50950Y-42450D02*
X50950Y-41650D01*
X51050Y-41650D02*
X51050Y-42450D01*
X57892Y-44657D02*
X57607Y-44857D01*
X57892Y-45000D02*
X57292Y-45000D01*
X57292Y-44771D01*
X57321Y-44714D01*
X57350Y-44685D01*
X57407Y-44657D01*
X57492Y-44657D01*
X57550Y-44685D01*
X57578Y-44714D01*
X57607Y-44771D01*
X57607Y-45000D01*
X57292Y-44485D02*
X57892Y-44285D01*
X57292Y-44085D01*
X57892Y-43571D02*
X57892Y-43914D01*
X57892Y-43742D02*
X57292Y-43742D01*
X57378Y-43800D01*
X57435Y-43857D01*
X57464Y-43914D01*
X57042Y-45050D02*
X57042Y-45392D01*
X57042Y-45221D02*
X56442Y-45221D01*
X56528Y-45278D01*
X56585Y-45335D01*
X56614Y-45392D01*
X56442Y-44678D02*
X56442Y-44621D01*
X56471Y-44564D01*
X56500Y-44535D01*
X56557Y-44507D01*
X56671Y-44478D01*
X56814Y-44478D01*
X56928Y-44507D01*
X56985Y-44535D01*
X57014Y-44564D01*
X57042Y-44621D01*
X57042Y-44678D01*
X57014Y-44735D01*
X56985Y-44764D01*
X56928Y-44792D01*
X56814Y-44821D01*
X56671Y-44821D01*
X56557Y-44792D01*
X56500Y-44764D01*
X56471Y-44735D01*
X56442Y-44678D01*
X56442Y-44107D02*
X56442Y-44049D01*
X56471Y-43992D01*
X56500Y-43964D01*
X56557Y-43935D01*
X56671Y-43907D01*
X56814Y-43907D01*
X56928Y-43935D01*
X56985Y-43964D01*
X57014Y-43992D01*
X57042Y-44049D01*
X57042Y-44107D01*
X57014Y-44164D01*
X56985Y-44192D01*
X56928Y-44221D01*
X56814Y-44249D01*
X56671Y-44249D01*
X56557Y-44221D01*
X56500Y-44192D01*
X56471Y-44164D01*
X56442Y-44107D01*
X57042Y-43649D02*
X56442Y-43649D01*
X57042Y-43307D02*
X56700Y-43564D01*
X56442Y-43307D02*
X56785Y-43649D01*
G54D14*
X52385Y-47571D02*
X52385Y-47271D01*
X52500Y-47271D01*
X52528Y-47285D01*
X52542Y-47300D01*
X52557Y-47328D01*
X52557Y-47371D01*
X52542Y-47400D01*
X52528Y-47414D01*
X52500Y-47428D01*
X52385Y-47428D01*
X52685Y-47571D02*
X52685Y-47271D01*
X52685Y-47414D02*
X52857Y-47414D01*
X52857Y-47571D02*
X52857Y-47271D01*
X53057Y-47271D02*
X53114Y-47271D01*
X53142Y-47285D01*
X53171Y-47314D01*
X53185Y-47371D01*
X53185Y-47471D01*
X53171Y-47528D01*
X53142Y-47557D01*
X53114Y-47571D01*
X53057Y-47571D01*
X53028Y-47557D01*
X53000Y-47528D01*
X52985Y-47471D01*
X52985Y-47371D01*
X53000Y-47314D01*
X53028Y-47285D01*
X53057Y-47271D01*
X53271Y-47271D02*
X53442Y-47271D01*
X53357Y-47571D02*
X53357Y-47271D01*
X53600Y-47271D02*
X53657Y-47271D01*
X53685Y-47285D01*
X53714Y-47314D01*
X53728Y-47371D01*
X53728Y-47471D01*
X53714Y-47528D01*
X53685Y-47557D01*
X53657Y-47571D01*
X53600Y-47571D01*
X53571Y-47557D01*
X53542Y-47528D01*
X53528Y-47471D01*
X53528Y-47371D01*
X53542Y-47314D01*
X53571Y-47285D01*
X53600Y-47271D01*
X54028Y-47571D02*
X53928Y-47428D01*
X53857Y-47571D02*
X53857Y-47271D01*
X53971Y-47271D01*
X54000Y-47285D01*
X54014Y-47300D01*
X54028Y-47328D01*
X54028Y-47371D01*
X54014Y-47400D01*
X54000Y-47414D01*
X53971Y-47428D01*
X53857Y-47428D01*
G54D18*
X41547Y-39880D02*
X41547Y-40042D01*
X41557Y-40061D01*
X41566Y-40071D01*
X41585Y-40080D01*
X41623Y-40080D01*
X41642Y-40071D01*
X41652Y-40061D01*
X41661Y-40042D01*
X41661Y-39880D01*
X41861Y-40080D02*
X41747Y-40080D01*
X41804Y-40080D02*
X41804Y-39880D01*
X41785Y-39909D01*
X41766Y-39928D01*
X41747Y-39938D01*
G54D15*
X46292Y-41454D02*
X46292Y-41188D01*
X46892Y-41359D01*
X46550Y-40978D02*
X46521Y-41016D01*
X46492Y-41035D01*
X46435Y-41054D01*
X46407Y-41054D01*
X46350Y-41035D01*
X46321Y-41016D01*
X46292Y-40978D01*
X46292Y-40902D01*
X46321Y-40864D01*
X46350Y-40845D01*
X46407Y-40826D01*
X46435Y-40826D01*
X46492Y-40845D01*
X46521Y-40864D01*
X46550Y-40902D01*
X46550Y-40978D01*
X46578Y-41016D01*
X46607Y-41035D01*
X46664Y-41054D01*
X46778Y-41054D01*
X46835Y-41035D01*
X46864Y-41016D01*
X46892Y-40978D01*
X46892Y-40902D01*
X46864Y-40864D01*
X46835Y-40845D01*
X46778Y-40826D01*
X46664Y-40826D01*
X46607Y-40845D01*
X46578Y-40864D01*
X46550Y-40902D01*
X46292Y-40578D02*
X46292Y-40540D01*
X46321Y-40502D01*
X46350Y-40483D01*
X46407Y-40464D01*
X46521Y-40445D01*
X46664Y-40445D01*
X46778Y-40464D01*
X46835Y-40483D01*
X46864Y-40502D01*
X46892Y-40540D01*
X46892Y-40578D01*
X46864Y-40616D01*
X46835Y-40635D01*
X46778Y-40654D01*
X46664Y-40673D01*
X46521Y-40673D01*
X46407Y-40654D01*
X46350Y-40635D01*
X46321Y-40616D01*
X46292Y-40578D01*
X46292Y-40083D02*
X46292Y-40273D01*
X46578Y-40292D01*
X46550Y-40273D01*
X46521Y-40235D01*
X46521Y-40140D01*
X46550Y-40102D01*
X46578Y-40083D01*
X46635Y-40064D01*
X46778Y-40064D01*
X46835Y-40083D01*
X46864Y-40102D01*
X46892Y-40140D01*
X46892Y-40235D01*
X46864Y-40273D01*
X46835Y-40292D01*
G54D18*
X54080Y-39750D02*
X54061Y-39740D01*
X54042Y-39721D01*
X54014Y-39692D01*
X53995Y-39683D01*
X53976Y-39683D01*
X53985Y-39730D02*
X53966Y-39721D01*
X53947Y-39702D01*
X53938Y-39664D01*
X53938Y-39597D01*
X53947Y-39559D01*
X53966Y-39540D01*
X53985Y-39530D01*
X54023Y-39530D01*
X54042Y-39540D01*
X54061Y-39559D01*
X54071Y-39597D01*
X54071Y-39664D01*
X54061Y-39702D01*
X54042Y-39721D01*
X54023Y-39730D01*
X53985Y-39730D01*
X54261Y-39730D02*
X54147Y-39730D01*
X54204Y-39730D02*
X54204Y-39530D01*
X54185Y-39559D01*
X54166Y-39578D01*
X54147Y-39588D01*
X51150Y-39730D02*
X51150Y-39530D01*
X51250Y-39673D01*
X51350Y-39530D01*
X51350Y-39730D01*
X51550Y-39530D02*
X51607Y-39530D01*
X51635Y-39540D01*
X51664Y-39559D01*
X51678Y-39597D01*
X51678Y-39664D01*
X51664Y-39702D01*
X51635Y-39721D01*
X51607Y-39730D01*
X51550Y-39730D01*
X51521Y-39721D01*
X51492Y-39702D01*
X51478Y-39664D01*
X51478Y-39597D01*
X51492Y-39559D01*
X51521Y-39540D01*
X51550Y-39530D01*
X51792Y-39721D02*
X51835Y-39730D01*
X51907Y-39730D01*
X51935Y-39721D01*
X51950Y-39711D01*
X51964Y-39692D01*
X51964Y-39673D01*
X51950Y-39654D01*
X51935Y-39645D01*
X51907Y-39635D01*
X51850Y-39626D01*
X51821Y-39616D01*
X51807Y-39607D01*
X51792Y-39588D01*
X51792Y-39569D01*
X51807Y-39550D01*
X51821Y-39540D01*
X51850Y-39530D01*
X51921Y-39530D01*
X51964Y-39540D01*
X52192Y-39626D02*
X52092Y-39626D01*
X52092Y-39730D02*
X52092Y-39530D01*
X52235Y-39530D01*
X52350Y-39626D02*
X52450Y-39626D01*
X52492Y-39730D02*
X52350Y-39730D01*
X52350Y-39530D01*
X52492Y-39530D01*
X52578Y-39530D02*
X52750Y-39530D01*
X52664Y-39730D02*
X52664Y-39530D01*
X52778Y-39750D02*
X53007Y-39750D01*
X53078Y-39730D02*
X53078Y-39530D01*
X53250Y-39730D01*
X53250Y-39530D01*
G54D19*
X46250Y-43441D02*
X46150Y-43275D01*
X46078Y-43441D02*
X46078Y-43091D01*
X46192Y-43091D01*
X46221Y-43108D01*
X46235Y-43125D01*
X46250Y-43158D01*
X46250Y-43208D01*
X46235Y-43241D01*
X46221Y-43258D01*
X46192Y-43275D01*
X46078Y-43275D01*
X46364Y-43125D02*
X46378Y-43108D01*
X46407Y-43091D01*
X46478Y-43091D01*
X46507Y-43108D01*
X46521Y-43125D01*
X46535Y-43158D01*
X46535Y-43191D01*
X46521Y-43241D01*
X46350Y-43441D01*
X46535Y-43441D01*
G54D15*
X43457Y-43922D02*
X43171Y-43922D01*
X43314Y-43922D02*
X43314Y-43372D01*
X43266Y-43451D01*
X43219Y-43503D01*
X43171Y-43529D01*
X43671Y-43922D02*
X43671Y-43372D01*
X43838Y-43765D01*
X44004Y-43372D01*
X44004Y-43922D01*
X50633Y-48982D02*
X50500Y-48767D01*
X50404Y-48982D02*
X50404Y-48532D01*
X50557Y-48532D01*
X50595Y-48553D01*
X50614Y-48575D01*
X50633Y-48617D01*
X50633Y-48682D01*
X50614Y-48725D01*
X50595Y-48746D01*
X50557Y-48767D01*
X50404Y-48767D01*
X51014Y-48982D02*
X50785Y-48982D01*
X50900Y-48982D02*
X50900Y-48532D01*
X50861Y-48596D01*
X50823Y-48639D01*
X50785Y-48660D01*
X49657Y-47905D02*
X49657Y-48272D01*
X49538Y-47696D02*
X49419Y-48089D01*
X49728Y-48089D01*
X49871Y-47722D02*
X50204Y-47722D01*
X49990Y-48272D01*
X50395Y-48272D02*
X50395Y-47722D01*
X50680Y-48272D02*
X50466Y-47958D01*
X50680Y-47722D02*
X50395Y-48036D01*
G54D18*
X49702Y-41930D02*
X49702Y-41730D01*
X49778Y-41730D01*
X49797Y-41740D01*
X49807Y-41750D01*
X49816Y-41769D01*
X49816Y-41797D01*
X49807Y-41816D01*
X49797Y-41826D01*
X49778Y-41835D01*
X49702Y-41835D01*
X50007Y-41930D02*
X49892Y-41930D01*
X49950Y-41930D02*
X49950Y-41730D01*
X49930Y-41759D01*
X49911Y-41778D01*
X49892Y-41788D01*
G54D15*
X40904Y-48461D02*
X40904Y-48061D01*
X41057Y-48061D01*
X41095Y-48080D01*
X41114Y-48100D01*
X41133Y-48138D01*
X41133Y-48195D01*
X41114Y-48233D01*
X41095Y-48252D01*
X41057Y-48271D01*
X40904Y-48271D01*
X41285Y-48100D02*
X41304Y-48080D01*
X41342Y-48061D01*
X41438Y-48061D01*
X41476Y-48080D01*
X41495Y-48100D01*
X41514Y-48138D01*
X41514Y-48176D01*
X41495Y-48233D01*
X41266Y-48461D01*
X41514Y-48461D01*
X40233Y-44273D02*
X40214Y-44292D01*
X40157Y-44311D01*
X40119Y-44311D01*
X40061Y-44292D01*
X40023Y-44254D01*
X40004Y-44216D01*
X39985Y-44140D01*
X39985Y-44083D01*
X40004Y-44007D01*
X40023Y-43969D01*
X40061Y-43930D01*
X40119Y-43911D01*
X40157Y-43911D01*
X40214Y-43930D01*
X40233Y-43950D01*
X40614Y-44311D02*
X40385Y-44311D01*
X40500Y-44311D02*
X40500Y-43911D01*
X40461Y-43969D01*
X40423Y-44007D01*
X40385Y-44026D01*
G54D18*
X41530Y-44311D02*
X41416Y-44311D01*
X41473Y-44311D02*
X41473Y-43911D01*
X41454Y-43969D01*
X41435Y-44007D01*
X41416Y-44026D01*
X41702Y-44045D02*
X41702Y-44311D01*
X41616Y-44045D02*
X41616Y-44254D01*
X41626Y-44292D01*
X41645Y-44311D01*
X41673Y-44311D01*
X41692Y-44292D01*
X41702Y-44273D01*
X41864Y-44102D02*
X41797Y-44102D01*
X41797Y-44311D02*
X41797Y-43911D01*
X41892Y-43911D01*
G54D15*
X46533Y-47123D02*
X46514Y-47142D01*
X46457Y-47161D01*
X46419Y-47161D01*
X46361Y-47142D01*
X46323Y-47104D01*
X46304Y-47066D01*
X46285Y-46990D01*
X46285Y-46933D01*
X46304Y-46857D01*
X46323Y-46819D01*
X46361Y-46780D01*
X46419Y-46761D01*
X46457Y-46761D01*
X46514Y-46780D01*
X46533Y-46800D01*
X46666Y-46761D02*
X46914Y-46761D01*
X46780Y-46914D01*
X46838Y-46914D01*
X46876Y-46933D01*
X46895Y-46952D01*
X46914Y-46990D01*
X46914Y-47085D01*
X46895Y-47123D01*
X46876Y-47142D01*
X46838Y-47161D01*
X46723Y-47161D01*
X46685Y-47142D01*
X46666Y-47123D01*
G54D18*
X46861Y-45664D02*
X46861Y-45778D01*
X46861Y-45721D02*
X46461Y-45721D01*
X46519Y-45740D01*
X46557Y-45759D01*
X46576Y-45778D01*
X46461Y-45540D02*
X46461Y-45521D01*
X46480Y-45502D01*
X46500Y-45492D01*
X46538Y-45483D01*
X46614Y-45473D01*
X46709Y-45473D01*
X46785Y-45483D01*
X46823Y-45492D01*
X46842Y-45502D01*
X46861Y-45521D01*
X46861Y-45540D01*
X46842Y-45559D01*
X46823Y-45569D01*
X46785Y-45578D01*
X46709Y-45588D01*
X46614Y-45588D01*
X46538Y-45578D01*
X46500Y-45569D01*
X46480Y-45559D01*
X46461Y-45540D01*
X46595Y-45302D02*
X46861Y-45302D01*
X46595Y-45388D02*
X46804Y-45388D01*
X46842Y-45378D01*
X46861Y-45359D01*
X46861Y-45330D01*
X46842Y-45311D01*
X46823Y-45302D01*
X46652Y-45140D02*
X46652Y-45207D01*
X46861Y-45207D02*
X46461Y-45207D01*
X46461Y-45111D01*
G54D15*
X52702Y-45089D02*
X52202Y-45089D01*
X52654Y-44617D02*
X52678Y-44639D01*
X52702Y-44703D01*
X52702Y-44746D01*
X52678Y-44810D01*
X52630Y-44853D01*
X52583Y-44874D01*
X52488Y-44896D01*
X52416Y-44896D01*
X52321Y-44874D01*
X52273Y-44853D01*
X52226Y-44810D01*
X52202Y-44746D01*
X52202Y-44703D01*
X52226Y-44639D01*
X52250Y-44617D01*
X52702Y-44189D02*
X52702Y-44446D01*
X52702Y-44317D02*
X52202Y-44317D01*
X52273Y-44360D01*
X52321Y-44403D01*
X52345Y-44446D01*
X51559Y-46207D02*
X51559Y-46016D01*
X51702Y-46245D02*
X51202Y-46111D01*
X51702Y-45978D01*
X51202Y-45902D02*
X51202Y-45673D01*
X51702Y-45788D02*
X51202Y-45788D01*
X51202Y-45597D02*
X51202Y-45369D01*
X51702Y-45483D02*
X51202Y-45483D01*
X51702Y-45235D02*
X51202Y-45235D01*
X51702Y-45045D02*
X51202Y-45045D01*
X51702Y-44816D01*
X51202Y-44816D01*
X51464Y-44549D02*
X51702Y-44549D01*
X51202Y-44683D02*
X51464Y-44549D01*
X51202Y-44416D01*
X51416Y-44226D02*
X51392Y-44264D01*
X51369Y-44283D01*
X51321Y-44302D01*
X51297Y-44302D01*
X51250Y-44283D01*
X51226Y-44264D01*
X51202Y-44226D01*
X51202Y-44150D01*
X51226Y-44111D01*
X51250Y-44092D01*
X51297Y-44073D01*
X51321Y-44073D01*
X51369Y-44092D01*
X51392Y-44111D01*
X51416Y-44150D01*
X51416Y-44226D01*
X51440Y-44264D01*
X51464Y-44283D01*
X51511Y-44302D01*
X51607Y-44302D01*
X51654Y-44283D01*
X51678Y-44264D01*
X51702Y-44226D01*
X51702Y-44150D01*
X51678Y-44111D01*
X51654Y-44092D01*
X51607Y-44073D01*
X51511Y-44073D01*
X51464Y-44092D01*
X51440Y-44111D01*
X51416Y-44150D01*
X51202Y-43711D02*
X51202Y-43902D01*
X51440Y-43921D01*
X51416Y-43902D01*
X51392Y-43864D01*
X51392Y-43769D01*
X51416Y-43730D01*
X51440Y-43711D01*
X51488Y-43692D01*
X51607Y-43692D01*
X51654Y-43711D01*
X51678Y-43730D01*
X51702Y-43769D01*
X51702Y-43864D01*
X51678Y-43902D01*
X51654Y-43921D01*
X51511Y-43521D02*
X51511Y-43216D01*
X51202Y-43083D02*
X51202Y-42854D01*
X51702Y-42969D02*
X51202Y-42969D01*
X50783Y-47273D02*
X50764Y-47292D01*
X50707Y-47311D01*
X50669Y-47311D01*
X50611Y-47292D01*
X50573Y-47254D01*
X50554Y-47216D01*
X50535Y-47140D01*
X50535Y-47083D01*
X50554Y-47007D01*
X50573Y-46969D01*
X50611Y-46930D01*
X50669Y-46911D01*
X50707Y-46911D01*
X50764Y-46930D01*
X50783Y-46950D01*
X51126Y-47045D02*
X51126Y-47311D01*
X51030Y-46892D02*
X50935Y-47178D01*
X51183Y-47178D01*
G54D18*
X49971Y-47311D02*
X49857Y-47311D01*
X49914Y-47311D02*
X49914Y-46911D01*
X49895Y-46969D01*
X49876Y-47007D01*
X49857Y-47026D01*
X50095Y-46911D02*
X50114Y-46911D01*
X50133Y-46930D01*
X50142Y-46950D01*
X50152Y-46988D01*
X50161Y-47064D01*
X50161Y-47159D01*
X50152Y-47235D01*
X50142Y-47273D01*
X50133Y-47292D01*
X50114Y-47311D01*
X50095Y-47311D01*
X50076Y-47292D01*
X50066Y-47273D01*
X50057Y-47235D01*
X50047Y-47159D01*
X50047Y-47064D01*
X50057Y-46988D01*
X50066Y-46950D01*
X50076Y-46930D01*
X50095Y-46911D01*
X50247Y-47045D02*
X50247Y-47311D01*
X50247Y-47083D02*
X50257Y-47064D01*
X50276Y-47045D01*
X50304Y-47045D01*
X50323Y-47064D01*
X50333Y-47102D01*
X50333Y-47311D01*
G54D15*
X40239Y-45858D02*
X40260Y-45875D01*
X40282Y-45925D01*
X40282Y-45958D01*
X40260Y-46008D01*
X40217Y-46041D01*
X40175Y-46058D01*
X40089Y-46075D01*
X40025Y-46075D01*
X39939Y-46058D01*
X39896Y-46041D01*
X39853Y-46008D01*
X39832Y-45958D01*
X39832Y-45925D01*
X39853Y-45875D01*
X39875Y-45858D01*
X39875Y-45725D02*
X39853Y-45708D01*
X39832Y-45675D01*
X39832Y-45591D01*
X39853Y-45558D01*
X39875Y-45541D01*
X39917Y-45525D01*
X39960Y-45525D01*
X40025Y-45541D01*
X40282Y-45741D01*
X40282Y-45525D01*
X41732Y-46208D02*
X42032Y-46208D01*
X41560Y-46291D02*
X41882Y-46375D01*
X41882Y-46158D01*
X41582Y-46058D02*
X41582Y-45824D01*
X42032Y-45974D01*
X41732Y-45541D02*
X42032Y-45541D01*
X41732Y-45691D02*
X41967Y-45691D01*
X42010Y-45674D01*
X42032Y-45641D01*
X42032Y-45591D01*
X42010Y-45558D01*
X41989Y-45541D01*
X41796Y-45258D02*
X41796Y-45374D01*
X42032Y-45374D02*
X41582Y-45374D01*
X41582Y-45208D01*
G54D20*
X40960Y-44971D02*
X40960Y-44628D01*
X41132Y-44800D02*
X40789Y-44800D01*
G54D17*
G54D19*
X46250Y-42241D02*
X46150Y-42075D01*
X46078Y-42241D02*
X46078Y-41891D01*
X46192Y-41891D01*
X46221Y-41908D01*
X46235Y-41925D01*
X46250Y-41958D01*
X46250Y-42008D01*
X46235Y-42041D01*
X46221Y-42058D01*
X46192Y-42075D01*
X46078Y-42075D01*
X46350Y-41891D02*
X46535Y-41891D01*
X46435Y-42025D01*
X46478Y-42025D01*
X46507Y-42041D01*
X46521Y-42058D01*
X46535Y-42091D01*
X46535Y-42175D01*
X46521Y-42208D01*
X46507Y-42225D01*
X46478Y-42241D01*
X46392Y-42241D01*
X46364Y-42225D01*
X46350Y-42208D01*
G54D15*
X43454Y-42772D02*
X43169Y-42772D01*
X43311Y-42772D02*
X43311Y-42222D01*
X43264Y-42301D01*
X43216Y-42353D01*
X43169Y-42379D01*
X43764Y-42222D02*
X43811Y-42222D01*
X43859Y-42248D01*
X43883Y-42275D01*
X43907Y-42327D01*
X43930Y-42432D01*
X43930Y-42563D01*
X43907Y-42667D01*
X43883Y-42720D01*
X43859Y-42746D01*
X43811Y-42772D01*
X43764Y-42772D01*
X43716Y-42746D01*
X43692Y-42720D01*
X43669Y-42667D01*
X43645Y-42563D01*
X43645Y-42432D01*
X43669Y-42327D01*
X43692Y-42275D01*
X43716Y-42248D01*
X43764Y-42222D01*
X44145Y-42772D02*
X44145Y-42222D01*
X44430Y-42772D02*
X44216Y-42458D01*
X44430Y-42222D02*
X44145Y-42536D01*
X47866Y-44446D02*
X47733Y-44446D01*
X47733Y-44682D02*
X47733Y-44232D01*
X47923Y-44232D01*
X48304Y-44682D02*
X48171Y-44467D01*
X48076Y-44682D02*
X48076Y-44232D01*
X48228Y-44232D01*
X48266Y-44253D01*
X48285Y-44275D01*
X48304Y-44317D01*
X48304Y-44382D01*
X48285Y-44425D01*
X48266Y-44446D01*
X48228Y-44467D01*
X48076Y-44467D01*
X48685Y-44682D02*
X48457Y-44682D01*
X48571Y-44682D02*
X48571Y-44232D01*
X48533Y-44296D01*
X48495Y-44339D01*
X48457Y-44360D01*
X46814Y-44682D02*
X46585Y-44682D01*
X46700Y-44682D02*
X46700Y-44232D01*
X46661Y-44296D01*
X46623Y-44339D01*
X46585Y-44360D01*
X47214Y-44682D02*
X47080Y-44467D01*
X46985Y-44682D02*
X46985Y-44232D01*
X47138Y-44232D01*
X47176Y-44253D01*
X47195Y-44275D01*
X47214Y-44317D01*
X47214Y-44382D01*
X47195Y-44425D01*
X47176Y-44446D01*
X47138Y-44467D01*
X46985Y-44467D01*
X51654Y-42211D02*
X51654Y-41811D01*
X51750Y-41811D01*
X51807Y-41830D01*
X51845Y-41869D01*
X51864Y-41907D01*
X51883Y-41983D01*
X51883Y-42040D01*
X51864Y-42116D01*
X51845Y-42154D01*
X51807Y-42192D01*
X51750Y-42211D01*
X51654Y-42211D01*
X52264Y-42211D02*
X52035Y-42211D01*
X52150Y-42211D02*
X52150Y-41811D01*
X52111Y-41869D01*
X52073Y-41907D01*
X52035Y-41926D01*
M02*
