M48
INCH,TZ
T1C0.025
T2C0.032
T3C0.040
T4C0.050
T5C0.159
%
G90
G05
T1
X043150Y-046150
X044850Y-042500
X044850Y-043650
X044850Y-046650
X046650Y-046150
T2
X040450Y-043250
X040950Y-045300
X040950Y-046300
X041450Y-043250
X042600Y-042500
X042600Y-043650
X045600Y-042500
X045600Y-043650
X046100Y-044450
X047650Y-045650
X047650Y-046650
X048500Y-048000
X049100Y-044450
X049150Y-045650
X049150Y-046650
X050400Y-043250
X050400Y-044250
X050400Y-045250
X050400Y-046250
X050450Y-042050
X051500Y-048000
X053400Y-043250
X053400Y-044250
X053400Y-045250
X053400Y-046250
X053450Y-042050
T3
X042150Y-048000
X043150Y-040850
X043150Y-048000
X044150Y-040850
X044150Y-048000
X045150Y-040850
X045150Y-048000
X046150Y-048000
X047150Y-048000
X049100Y-040350
X049100Y-041350
X049100Y-042350
X049100Y-043350
X051200Y-040900
X052200Y-040900
X052800Y-048150
X053200Y-040900
X053800Y-048150
X055600Y-043250
X055600Y-045250
T4
X055600Y-042250
X055600Y-044250
X055600Y-046250
T5
X040750Y-041150
X057550Y-047450
X057600Y-041150
T0
M30
