G04 (created by PCBNEW (2013-june-11)-stable) date Thu 27 Nov 2014 07:47:22 AM EST*
%MOIN*%
G04 Gerber Fmt 3.4, Leading zero omitted, Abs format*
%FSLAX34Y34*%
G01*
G70*
G90*
G04 APERTURE LIST*
%ADD10C,0.00590551*%
%ADD11C,0.19937*%
%ADD12C,0.06*%
%ADD13C,0.1*%
%ADD14R,0.1X0.1*%
%ADD15R,0.06X0.06*%
%ADD16C,0.07*%
%ADD17R,0.07X0.07*%
%ADD18C,0.055*%
%ADD19R,0.055X0.055*%
%ADD20C,0.01*%
G04 APERTURE END LIST*
G54D10*
G54D11*
X40900Y-45500D03*
X57600Y-41150D03*
X57550Y-47450D03*
G54D12*
X55600Y-43250D03*
G54D13*
X55600Y-44250D03*
G54D14*
X55600Y-46250D03*
G54D13*
X55600Y-42250D03*
G54D12*
X55600Y-45250D03*
G54D15*
X52800Y-48150D03*
G54D12*
X53800Y-48150D03*
G54D16*
X44100Y-46250D03*
X45100Y-46250D03*
G54D17*
X46100Y-46250D03*
G54D16*
X50400Y-41250D03*
X51400Y-41250D03*
G54D17*
X52400Y-41250D03*
G54D18*
X49250Y-43250D03*
X46250Y-43250D03*
X51500Y-48000D03*
X48500Y-48000D03*
G54D15*
X41700Y-43250D03*
G54D12*
X41700Y-42250D03*
X41700Y-41250D03*
X41700Y-40250D03*
G54D15*
X41700Y-48000D03*
G54D12*
X42700Y-48000D03*
X43700Y-48000D03*
X44700Y-48000D03*
X45700Y-48000D03*
X46700Y-48000D03*
G54D18*
X48400Y-42000D03*
X48400Y-41000D03*
X47900Y-46200D03*
X47900Y-45200D03*
G54D19*
X53400Y-46250D03*
G54D18*
X53400Y-45250D03*
X53400Y-44250D03*
X53400Y-43250D03*
X50400Y-43250D03*
X50400Y-44250D03*
X50400Y-45250D03*
X50400Y-46250D03*
X49200Y-45200D03*
X49200Y-46200D03*
G54D15*
X43650Y-42000D03*
G54D12*
X43650Y-41000D03*
G54D18*
X44739Y-43060D03*
X46860Y-40939D03*
G54D20*
X51500Y-48000D02*
X52150Y-47350D01*
X53800Y-47900D02*
X53800Y-48150D01*
X53250Y-47350D02*
X53800Y-47900D01*
X52150Y-47350D02*
X53250Y-47350D01*
X44700Y-48000D02*
X45250Y-48550D01*
X50250Y-44250D02*
X50400Y-44250D01*
X49750Y-44750D02*
X50250Y-44250D01*
X49750Y-47600D02*
X49750Y-44750D01*
X48800Y-48550D02*
X49750Y-47600D01*
X45250Y-48550D02*
X48800Y-48550D01*
X45700Y-48000D02*
X46950Y-46750D01*
X48450Y-44050D02*
X49250Y-43250D01*
X47400Y-44050D02*
X48450Y-44050D01*
X46950Y-44500D02*
X47400Y-44050D01*
X46950Y-46750D02*
X46950Y-44500D01*
X50400Y-45250D02*
X50550Y-45250D01*
X42700Y-48100D02*
X43400Y-48800D01*
X43400Y-48800D02*
X49700Y-48800D01*
X42700Y-48100D02*
X42700Y-48000D01*
X50950Y-47550D02*
X49700Y-48800D01*
X50950Y-45650D02*
X50950Y-47550D01*
X50550Y-45250D02*
X50950Y-45650D01*
X43700Y-48000D02*
X43700Y-47900D01*
X45050Y-47300D02*
X46100Y-46250D01*
X44300Y-47300D02*
X45050Y-47300D01*
X43700Y-47900D02*
X44300Y-47300D01*
X49200Y-46200D02*
X49200Y-46250D01*
X47450Y-48000D02*
X46700Y-48000D01*
X49200Y-46250D02*
X47450Y-48000D01*
X55600Y-46250D02*
X55600Y-45250D01*
G54D10*
G36*
X49450Y-47475D02*
X49020Y-47905D01*
X49018Y-47867D01*
X48960Y-47727D01*
X48867Y-47702D01*
X48570Y-48000D01*
X48576Y-48005D01*
X48505Y-48076D01*
X48500Y-48070D01*
X48494Y-48076D01*
X48423Y-48005D01*
X48429Y-48000D01*
X48423Y-47994D01*
X48494Y-47923D01*
X48500Y-47929D01*
X48797Y-47632D01*
X48772Y-47539D01*
X48575Y-47470D01*
X48394Y-47479D01*
X49149Y-46724D01*
X49303Y-46725D01*
X49450Y-46664D01*
X49450Y-47475D01*
X49450Y-47475D01*
G37*
G54D20*
X49450Y-47475D02*
X49020Y-47905D01*
X49018Y-47867D01*
X48960Y-47727D01*
X48867Y-47702D01*
X48570Y-48000D01*
X48576Y-48005D01*
X48505Y-48076D01*
X48500Y-48070D01*
X48494Y-48076D01*
X48423Y-48005D01*
X48429Y-48000D01*
X48423Y-47994D01*
X48494Y-47923D01*
X48500Y-47929D01*
X48797Y-47632D01*
X48772Y-47539D01*
X48575Y-47470D01*
X48394Y-47479D01*
X49149Y-46724D01*
X49303Y-46725D01*
X49450Y-46664D01*
X49450Y-47475D01*
G54D10*
G36*
X55676Y-45255D02*
X55605Y-45326D01*
X55600Y-45320D01*
X55594Y-45326D01*
X55523Y-45255D01*
X55529Y-45250D01*
X55523Y-45244D01*
X55594Y-45173D01*
X55600Y-45179D01*
X55605Y-45173D01*
X55676Y-45244D01*
X55670Y-45250D01*
X55676Y-45255D01*
X55676Y-45255D01*
G37*
G54D20*
X55676Y-45255D02*
X55605Y-45326D01*
X55600Y-45320D01*
X55594Y-45326D01*
X55523Y-45255D01*
X55529Y-45250D01*
X55523Y-45244D01*
X55594Y-45173D01*
X55600Y-45179D01*
X55605Y-45173D01*
X55676Y-45244D01*
X55670Y-45250D01*
X55676Y-45255D01*
G54D10*
G36*
X58730Y-48930D02*
X55550Y-48930D01*
X55550Y-46937D01*
X55550Y-46300D01*
X54912Y-46300D01*
X54850Y-46362D01*
X54849Y-46700D01*
X54850Y-46799D01*
X54888Y-46891D01*
X54958Y-46962D01*
X55050Y-47000D01*
X55487Y-47000D01*
X55550Y-46937D01*
X55550Y-48930D01*
X49993Y-48930D01*
X50975Y-47949D01*
X50974Y-48103D01*
X51054Y-48297D01*
X51202Y-48444D01*
X51395Y-48524D01*
X51603Y-48525D01*
X51797Y-48445D01*
X51944Y-48297D01*
X52024Y-48104D01*
X52025Y-47899D01*
X52274Y-47650D01*
X52346Y-47650D01*
X52288Y-47708D01*
X52250Y-47800D01*
X52249Y-47899D01*
X52249Y-48499D01*
X52287Y-48591D01*
X52358Y-48661D01*
X52450Y-48699D01*
X52549Y-48700D01*
X53149Y-48700D01*
X53241Y-48662D01*
X53311Y-48591D01*
X53349Y-48499D01*
X53349Y-48477D01*
X53488Y-48615D01*
X53690Y-48699D01*
X53908Y-48700D01*
X54111Y-48616D01*
X54265Y-48461D01*
X54349Y-48259D01*
X54350Y-48041D01*
X54266Y-47838D01*
X54111Y-47684D01*
X53934Y-47610D01*
X53929Y-47605D01*
X53929Y-43325D01*
X53918Y-43117D01*
X53860Y-42977D01*
X53767Y-42952D01*
X53697Y-43023D01*
X53697Y-42882D01*
X53672Y-42789D01*
X53475Y-42720D01*
X53267Y-42731D01*
X53127Y-42789D01*
X53102Y-42882D01*
X53400Y-43179D01*
X53697Y-42882D01*
X53697Y-43023D01*
X53470Y-43250D01*
X53767Y-43547D01*
X53860Y-43522D01*
X53929Y-43325D01*
X53929Y-47605D01*
X53925Y-47600D01*
X53925Y-45146D01*
X53845Y-44953D01*
X53697Y-44805D01*
X53564Y-44749D01*
X53697Y-44695D01*
X53844Y-44547D01*
X53924Y-44354D01*
X53925Y-44146D01*
X53845Y-43953D01*
X53697Y-43805D01*
X53571Y-43752D01*
X53672Y-43710D01*
X53697Y-43617D01*
X53400Y-43320D01*
X53329Y-43391D01*
X53329Y-43250D01*
X53032Y-42952D01*
X53000Y-42961D01*
X53000Y-41649D01*
X53000Y-40850D01*
X52962Y-40758D01*
X52891Y-40688D01*
X52799Y-40650D01*
X52700Y-40649D01*
X52512Y-40650D01*
X52450Y-40712D01*
X52450Y-41200D01*
X52937Y-41200D01*
X53000Y-41137D01*
X53000Y-40850D01*
X53000Y-41649D01*
X53000Y-41362D01*
X52937Y-41300D01*
X52450Y-41300D01*
X52450Y-41787D01*
X52512Y-41850D01*
X52700Y-41850D01*
X52799Y-41849D01*
X52891Y-41811D01*
X52962Y-41741D01*
X53000Y-41649D01*
X53000Y-42961D01*
X52939Y-42977D01*
X52870Y-43174D01*
X52881Y-43382D01*
X52939Y-43522D01*
X53032Y-43547D01*
X53329Y-43250D01*
X53329Y-43391D01*
X53102Y-43617D01*
X53127Y-43710D01*
X53237Y-43749D01*
X53103Y-43804D01*
X52955Y-43952D01*
X52875Y-44145D01*
X52874Y-44353D01*
X52954Y-44547D01*
X53102Y-44694D01*
X53235Y-44750D01*
X53103Y-44804D01*
X52955Y-44952D01*
X52875Y-45145D01*
X52874Y-45353D01*
X52954Y-45547D01*
X53102Y-45694D01*
X53174Y-45724D01*
X53075Y-45724D01*
X52983Y-45762D01*
X52913Y-45833D01*
X52875Y-45925D01*
X52874Y-46024D01*
X52874Y-46574D01*
X52912Y-46666D01*
X52983Y-46736D01*
X53075Y-46774D01*
X53174Y-46775D01*
X53724Y-46775D01*
X53816Y-46737D01*
X53886Y-46666D01*
X53924Y-46574D01*
X53925Y-46475D01*
X53925Y-45925D01*
X53887Y-45833D01*
X53816Y-45763D01*
X53724Y-45725D01*
X53625Y-45724D01*
X53625Y-45724D01*
X53697Y-45695D01*
X53844Y-45547D01*
X53924Y-45354D01*
X53925Y-45146D01*
X53925Y-47600D01*
X53462Y-47137D01*
X53364Y-47072D01*
X53250Y-47050D01*
X52350Y-47050D01*
X52350Y-41787D01*
X52350Y-41300D01*
X52342Y-41300D01*
X52342Y-41200D01*
X52350Y-41200D01*
X52350Y-40712D01*
X52287Y-40650D01*
X52099Y-40649D01*
X52000Y-40650D01*
X51908Y-40688D01*
X51837Y-40758D01*
X51814Y-40815D01*
X51740Y-40741D01*
X51519Y-40650D01*
X51281Y-40649D01*
X51060Y-40741D01*
X50899Y-40901D01*
X50740Y-40741D01*
X50519Y-40650D01*
X50281Y-40649D01*
X50060Y-40741D01*
X49891Y-40909D01*
X49800Y-41130D01*
X49799Y-41368D01*
X49891Y-41589D01*
X50059Y-41758D01*
X50280Y-41849D01*
X50518Y-41850D01*
X50739Y-41758D01*
X50900Y-41598D01*
X51059Y-41758D01*
X51280Y-41849D01*
X51518Y-41850D01*
X51739Y-41758D01*
X51814Y-41684D01*
X51837Y-41741D01*
X51908Y-41811D01*
X52000Y-41849D01*
X52099Y-41850D01*
X52287Y-41850D01*
X52350Y-41787D01*
X52350Y-47050D01*
X52150Y-47050D01*
X52035Y-47072D01*
X51937Y-47137D01*
X51600Y-47475D01*
X51396Y-47474D01*
X51250Y-47535D01*
X51250Y-45650D01*
X51249Y-45649D01*
X51227Y-45535D01*
X51162Y-45437D01*
X51162Y-45437D01*
X50925Y-45200D01*
X50925Y-45146D01*
X50845Y-44953D01*
X50697Y-44805D01*
X50564Y-44749D01*
X50697Y-44695D01*
X50844Y-44547D01*
X50924Y-44354D01*
X50925Y-44146D01*
X50845Y-43953D01*
X50697Y-43805D01*
X50564Y-43749D01*
X50697Y-43695D01*
X50844Y-43547D01*
X50924Y-43354D01*
X50925Y-43146D01*
X50845Y-42953D01*
X50697Y-42805D01*
X50504Y-42725D01*
X50296Y-42724D01*
X50103Y-42804D01*
X49955Y-42952D01*
X49875Y-43145D01*
X49874Y-43353D01*
X49954Y-43547D01*
X50102Y-43694D01*
X50235Y-43750D01*
X50103Y-43804D01*
X49955Y-43952D01*
X49875Y-44145D01*
X49875Y-44200D01*
X49537Y-44537D01*
X49472Y-44635D01*
X49453Y-44732D01*
X49275Y-44670D01*
X49067Y-44681D01*
X48927Y-44739D01*
X48902Y-44832D01*
X49200Y-45129D01*
X49205Y-45123D01*
X49276Y-45194D01*
X49270Y-45200D01*
X49276Y-45205D01*
X49205Y-45276D01*
X49200Y-45270D01*
X49129Y-45341D01*
X49129Y-45200D01*
X48832Y-44902D01*
X48739Y-44927D01*
X48670Y-45124D01*
X48681Y-45332D01*
X48739Y-45472D01*
X48832Y-45497D01*
X49129Y-45200D01*
X49129Y-45341D01*
X48902Y-45567D01*
X48927Y-45660D01*
X49037Y-45699D01*
X48903Y-45754D01*
X48755Y-45902D01*
X48675Y-46095D01*
X48674Y-46303D01*
X48688Y-46337D01*
X48429Y-46595D01*
X48429Y-45275D01*
X48418Y-45067D01*
X48360Y-44927D01*
X48267Y-44902D01*
X48197Y-44973D01*
X48197Y-44832D01*
X48172Y-44739D01*
X47975Y-44670D01*
X47767Y-44681D01*
X47627Y-44739D01*
X47602Y-44832D01*
X47900Y-45129D01*
X48197Y-44832D01*
X48197Y-44973D01*
X47970Y-45200D01*
X48267Y-45497D01*
X48360Y-45472D01*
X48429Y-45275D01*
X48429Y-46595D01*
X48425Y-46600D01*
X48425Y-46096D01*
X48345Y-45903D01*
X48197Y-45755D01*
X48071Y-45702D01*
X48172Y-45660D01*
X48197Y-45567D01*
X47900Y-45270D01*
X47829Y-45341D01*
X47829Y-45200D01*
X47532Y-44902D01*
X47439Y-44927D01*
X47370Y-45124D01*
X47381Y-45332D01*
X47439Y-45472D01*
X47532Y-45497D01*
X47829Y-45200D01*
X47829Y-45341D01*
X47602Y-45567D01*
X47627Y-45660D01*
X47737Y-45699D01*
X47603Y-45754D01*
X47455Y-45902D01*
X47375Y-46095D01*
X47374Y-46303D01*
X47454Y-46497D01*
X47602Y-46644D01*
X47795Y-46724D01*
X48003Y-46725D01*
X48197Y-46645D01*
X48344Y-46497D01*
X48424Y-46304D01*
X48425Y-46096D01*
X48425Y-46600D01*
X47325Y-47700D01*
X47171Y-47700D01*
X47166Y-47688D01*
X47011Y-47534D01*
X46809Y-47450D01*
X46674Y-47449D01*
X47162Y-46962D01*
X47227Y-46864D01*
X47249Y-46750D01*
X47250Y-46750D01*
X47250Y-44624D01*
X47524Y-44350D01*
X48450Y-44350D01*
X48450Y-44349D01*
X48564Y-44327D01*
X48564Y-44327D01*
X48662Y-44262D01*
X49149Y-43774D01*
X49353Y-43775D01*
X49547Y-43695D01*
X49694Y-43547D01*
X49774Y-43354D01*
X49775Y-43146D01*
X49695Y-42953D01*
X49547Y-42805D01*
X49354Y-42725D01*
X49146Y-42724D01*
X48953Y-42804D01*
X48929Y-42827D01*
X48929Y-41075D01*
X48918Y-40867D01*
X48860Y-40727D01*
X48767Y-40702D01*
X48697Y-40773D01*
X48697Y-40632D01*
X48672Y-40539D01*
X48475Y-40470D01*
X48267Y-40481D01*
X48127Y-40539D01*
X48102Y-40632D01*
X48400Y-40929D01*
X48697Y-40632D01*
X48697Y-40773D01*
X48470Y-41000D01*
X48767Y-41297D01*
X48860Y-41272D01*
X48929Y-41075D01*
X48929Y-42827D01*
X48925Y-42832D01*
X48925Y-41896D01*
X48845Y-41703D01*
X48697Y-41555D01*
X48571Y-41502D01*
X48672Y-41460D01*
X48697Y-41367D01*
X48400Y-41070D01*
X48329Y-41141D01*
X48329Y-41000D01*
X48032Y-40702D01*
X47939Y-40727D01*
X47870Y-40924D01*
X47881Y-41132D01*
X47939Y-41272D01*
X48032Y-41297D01*
X48329Y-41000D01*
X48329Y-41141D01*
X48102Y-41367D01*
X48127Y-41460D01*
X48237Y-41499D01*
X48103Y-41554D01*
X47955Y-41702D01*
X47875Y-41895D01*
X47874Y-42103D01*
X47954Y-42297D01*
X48102Y-42444D01*
X48295Y-42524D01*
X48503Y-42525D01*
X48697Y-42445D01*
X48844Y-42297D01*
X48924Y-42104D01*
X48925Y-41896D01*
X48925Y-42832D01*
X48805Y-42952D01*
X48725Y-43145D01*
X48724Y-43350D01*
X48325Y-43750D01*
X47400Y-43750D01*
X47385Y-43752D01*
X47385Y-40835D01*
X47305Y-40642D01*
X47158Y-40494D01*
X46965Y-40414D01*
X46756Y-40414D01*
X46563Y-40494D01*
X46415Y-40641D01*
X46335Y-40834D01*
X46335Y-41043D01*
X46415Y-41236D01*
X46562Y-41384D01*
X46755Y-41464D01*
X46964Y-41464D01*
X47157Y-41384D01*
X47305Y-41237D01*
X47385Y-41044D01*
X47385Y-40835D01*
X47385Y-43752D01*
X47285Y-43772D01*
X47187Y-43837D01*
X46779Y-44245D01*
X46779Y-43325D01*
X46768Y-43117D01*
X46710Y-42977D01*
X46617Y-42952D01*
X46547Y-43023D01*
X46547Y-42882D01*
X46522Y-42789D01*
X46325Y-42720D01*
X46117Y-42731D01*
X45977Y-42789D01*
X45952Y-42882D01*
X46250Y-43179D01*
X46547Y-42882D01*
X46547Y-43023D01*
X46320Y-43250D01*
X46617Y-43547D01*
X46710Y-43522D01*
X46779Y-43325D01*
X46779Y-44245D01*
X46737Y-44287D01*
X46672Y-44385D01*
X46650Y-44500D01*
X46650Y-45746D01*
X46591Y-45688D01*
X46547Y-45669D01*
X46547Y-43617D01*
X46250Y-43320D01*
X46179Y-43391D01*
X46179Y-43250D01*
X45882Y-42952D01*
X45789Y-42977D01*
X45720Y-43174D01*
X45731Y-43382D01*
X45789Y-43522D01*
X45882Y-43547D01*
X46179Y-43250D01*
X46179Y-43391D01*
X45952Y-43617D01*
X45977Y-43710D01*
X46174Y-43779D01*
X46382Y-43768D01*
X46522Y-43710D01*
X46547Y-43617D01*
X46547Y-45669D01*
X46499Y-45650D01*
X46400Y-45649D01*
X45700Y-45649D01*
X45608Y-45687D01*
X45538Y-45758D01*
X45518Y-45804D01*
X45496Y-45782D01*
X45451Y-45827D01*
X45417Y-45727D01*
X45264Y-45671D01*
X45264Y-42956D01*
X45184Y-42763D01*
X45037Y-42615D01*
X44844Y-42535D01*
X44635Y-42535D01*
X44442Y-42615D01*
X44294Y-42762D01*
X44214Y-42955D01*
X44214Y-43164D01*
X44294Y-43357D01*
X44441Y-43505D01*
X44634Y-43585D01*
X44843Y-43585D01*
X45036Y-43505D01*
X45184Y-43358D01*
X45264Y-43165D01*
X45264Y-42956D01*
X45264Y-45671D01*
X45193Y-45645D01*
X44955Y-45655D01*
X44782Y-45727D01*
X44748Y-45827D01*
X45100Y-46179D01*
X45105Y-46173D01*
X45176Y-46244D01*
X45170Y-46250D01*
X45176Y-46255D01*
X45105Y-46326D01*
X45100Y-46320D01*
X45029Y-46391D01*
X45029Y-46250D01*
X44677Y-45898D01*
X44612Y-45920D01*
X44608Y-45910D01*
X44440Y-45741D01*
X44219Y-45650D01*
X44204Y-45650D01*
X44204Y-41081D01*
X44193Y-40863D01*
X44131Y-40712D01*
X44035Y-40684D01*
X43965Y-40755D01*
X43965Y-40614D01*
X43937Y-40518D01*
X43731Y-40445D01*
X43513Y-40456D01*
X43362Y-40518D01*
X43334Y-40614D01*
X43650Y-40929D01*
X43965Y-40614D01*
X43965Y-40755D01*
X43720Y-41000D01*
X44035Y-41315D01*
X44131Y-41287D01*
X44204Y-41081D01*
X44204Y-45650D01*
X44200Y-45650D01*
X44200Y-42250D01*
X44200Y-41650D01*
X44162Y-41558D01*
X44091Y-41488D01*
X43999Y-41450D01*
X43946Y-41449D01*
X43965Y-41385D01*
X43650Y-41070D01*
X43579Y-41141D01*
X43579Y-41000D01*
X43264Y-40684D01*
X43168Y-40712D01*
X43095Y-40918D01*
X43106Y-41136D01*
X43168Y-41287D01*
X43264Y-41315D01*
X43579Y-41000D01*
X43579Y-41141D01*
X43334Y-41385D01*
X43353Y-41449D01*
X43300Y-41449D01*
X43208Y-41487D01*
X43138Y-41558D01*
X43100Y-41650D01*
X43099Y-41749D01*
X43099Y-42349D01*
X43137Y-42441D01*
X43208Y-42511D01*
X43300Y-42549D01*
X43399Y-42550D01*
X43999Y-42550D01*
X44091Y-42512D01*
X44161Y-42441D01*
X44199Y-42349D01*
X44200Y-42250D01*
X44200Y-45650D01*
X43981Y-45649D01*
X43760Y-45741D01*
X43591Y-45909D01*
X43500Y-46130D01*
X43499Y-46368D01*
X43591Y-46589D01*
X43759Y-46758D01*
X43980Y-46849D01*
X44218Y-46850D01*
X44439Y-46758D01*
X44608Y-46590D01*
X44612Y-46579D01*
X44677Y-46601D01*
X45029Y-46250D01*
X45029Y-46391D01*
X44748Y-46672D01*
X44782Y-46772D01*
X45006Y-46854D01*
X45074Y-46851D01*
X44925Y-47000D01*
X44300Y-47000D01*
X44185Y-47022D01*
X44087Y-47087D01*
X43725Y-47450D01*
X43591Y-47449D01*
X43388Y-47533D01*
X43234Y-47688D01*
X43200Y-47769D01*
X43166Y-47688D01*
X43011Y-47534D01*
X42809Y-47450D01*
X42591Y-47449D01*
X42388Y-47533D01*
X42254Y-47667D01*
X42254Y-40331D01*
X42243Y-40113D01*
X42181Y-39962D01*
X42085Y-39934D01*
X42015Y-40005D01*
X42015Y-39864D01*
X41987Y-39768D01*
X41781Y-39695D01*
X41563Y-39706D01*
X41412Y-39768D01*
X41384Y-39864D01*
X41700Y-40179D01*
X42015Y-39864D01*
X42015Y-40005D01*
X41770Y-40250D01*
X42085Y-40565D01*
X42181Y-40537D01*
X42254Y-40331D01*
X42254Y-47667D01*
X42250Y-47671D01*
X42250Y-42141D01*
X42166Y-41938D01*
X42011Y-41784D01*
X41930Y-41750D01*
X42011Y-41716D01*
X42165Y-41561D01*
X42249Y-41359D01*
X42250Y-41141D01*
X42166Y-40938D01*
X42011Y-40784D01*
X41936Y-40752D01*
X41987Y-40731D01*
X42015Y-40635D01*
X41700Y-40320D01*
X41629Y-40391D01*
X41629Y-40250D01*
X41314Y-39934D01*
X41218Y-39962D01*
X41145Y-40168D01*
X41156Y-40386D01*
X41218Y-40537D01*
X41314Y-40565D01*
X41629Y-40250D01*
X41629Y-40391D01*
X41384Y-40635D01*
X41412Y-40731D01*
X41467Y-40750D01*
X41388Y-40783D01*
X41234Y-40938D01*
X41150Y-41140D01*
X41149Y-41358D01*
X41233Y-41561D01*
X41388Y-41715D01*
X41469Y-41749D01*
X41388Y-41783D01*
X41234Y-41938D01*
X41150Y-42140D01*
X41149Y-42358D01*
X41233Y-42561D01*
X41372Y-42699D01*
X41350Y-42699D01*
X41258Y-42737D01*
X41188Y-42808D01*
X41150Y-42900D01*
X41149Y-42999D01*
X41149Y-43599D01*
X41187Y-43691D01*
X41258Y-43761D01*
X41350Y-43799D01*
X41449Y-43800D01*
X42049Y-43800D01*
X42141Y-43762D01*
X42211Y-43691D01*
X42249Y-43599D01*
X42250Y-43500D01*
X42250Y-42900D01*
X42212Y-42808D01*
X42141Y-42738D01*
X42049Y-42700D01*
X42027Y-42700D01*
X42165Y-42561D01*
X42249Y-42359D01*
X42250Y-42141D01*
X42250Y-47671D01*
X42249Y-47672D01*
X42249Y-47650D01*
X42211Y-47558D01*
X42141Y-47487D01*
X42049Y-47449D01*
X41812Y-47450D01*
X41750Y-47512D01*
X41750Y-47950D01*
X41757Y-47950D01*
X41757Y-48050D01*
X41750Y-48050D01*
X41750Y-48487D01*
X41812Y-48550D01*
X42049Y-48550D01*
X42141Y-48512D01*
X42211Y-48441D01*
X42249Y-48349D01*
X42249Y-48327D01*
X42388Y-48465D01*
X42590Y-48549D01*
X42725Y-48550D01*
X43106Y-48930D01*
X41650Y-48930D01*
X41650Y-48487D01*
X41650Y-48050D01*
X41650Y-47950D01*
X41650Y-47512D01*
X41587Y-47450D01*
X41350Y-47449D01*
X41258Y-47487D01*
X41188Y-47558D01*
X41150Y-47650D01*
X41149Y-47749D01*
X41150Y-47887D01*
X41212Y-47950D01*
X41650Y-47950D01*
X41650Y-48050D01*
X41212Y-48050D01*
X41150Y-48112D01*
X41149Y-48250D01*
X41150Y-48349D01*
X41188Y-48441D01*
X41258Y-48512D01*
X41350Y-48550D01*
X41587Y-48550D01*
X41650Y-48487D01*
X41650Y-48930D01*
X39669Y-48930D01*
X39669Y-45787D01*
X39842Y-46205D01*
X40192Y-46556D01*
X40650Y-46746D01*
X41146Y-46747D01*
X41605Y-46557D01*
X41956Y-46207D01*
X42146Y-45749D01*
X42147Y-45253D01*
X41957Y-44794D01*
X41607Y-44443D01*
X41149Y-44253D01*
X40653Y-44252D01*
X40194Y-44442D01*
X39843Y-44792D01*
X39669Y-45211D01*
X39669Y-39669D01*
X58730Y-39669D01*
X58730Y-40620D01*
X58657Y-40444D01*
X58307Y-40093D01*
X57849Y-39903D01*
X57353Y-39902D01*
X56894Y-40092D01*
X56543Y-40442D01*
X56353Y-40900D01*
X56352Y-41396D01*
X56542Y-41855D01*
X56892Y-42206D01*
X57350Y-42396D01*
X57846Y-42397D01*
X58305Y-42207D01*
X58656Y-41857D01*
X58730Y-41679D01*
X58730Y-47041D01*
X58607Y-46744D01*
X58257Y-46393D01*
X57799Y-46203D01*
X57303Y-46202D01*
X56844Y-46392D01*
X56493Y-46742D01*
X56350Y-47088D01*
X56350Y-44101D01*
X56236Y-43825D01*
X56025Y-43614D01*
X56016Y-43611D01*
X56065Y-43561D01*
X56149Y-43359D01*
X56150Y-43141D01*
X56066Y-42938D01*
X56016Y-42889D01*
X56024Y-42886D01*
X56235Y-42675D01*
X56349Y-42399D01*
X56350Y-42101D01*
X56236Y-41825D01*
X56025Y-41614D01*
X55749Y-41500D01*
X55451Y-41499D01*
X55175Y-41613D01*
X54964Y-41824D01*
X54850Y-42100D01*
X54849Y-42398D01*
X54963Y-42674D01*
X55174Y-42885D01*
X55183Y-42888D01*
X55134Y-42938D01*
X55050Y-43140D01*
X55049Y-43358D01*
X55133Y-43561D01*
X55183Y-43610D01*
X55175Y-43613D01*
X54964Y-43824D01*
X54850Y-44100D01*
X54849Y-44398D01*
X54963Y-44674D01*
X55173Y-44884D01*
X55168Y-44889D01*
X55214Y-44934D01*
X55118Y-44962D01*
X55045Y-45168D01*
X55056Y-45386D01*
X55103Y-45499D01*
X55050Y-45499D01*
X54958Y-45537D01*
X54888Y-45608D01*
X54850Y-45700D01*
X54849Y-45799D01*
X54850Y-46137D01*
X54912Y-46200D01*
X55550Y-46200D01*
X55550Y-46192D01*
X55650Y-46192D01*
X55650Y-46200D01*
X56287Y-46200D01*
X56350Y-46137D01*
X56350Y-45799D01*
X56349Y-45700D01*
X56311Y-45608D01*
X56241Y-45537D01*
X56149Y-45499D01*
X56094Y-45499D01*
X56154Y-45331D01*
X56143Y-45113D01*
X56081Y-44962D01*
X55985Y-44934D01*
X56031Y-44889D01*
X56026Y-44884D01*
X56235Y-44675D01*
X56349Y-44399D01*
X56350Y-44101D01*
X56350Y-47088D01*
X56350Y-47088D01*
X56350Y-46700D01*
X56350Y-46362D01*
X56287Y-46300D01*
X55650Y-46300D01*
X55650Y-46937D01*
X55712Y-47000D01*
X56149Y-47000D01*
X56241Y-46962D01*
X56311Y-46891D01*
X56349Y-46799D01*
X56350Y-46700D01*
X56350Y-47088D01*
X56303Y-47200D01*
X56302Y-47696D01*
X56492Y-48155D01*
X56842Y-48506D01*
X57300Y-48696D01*
X57796Y-48697D01*
X58255Y-48507D01*
X58606Y-48157D01*
X58730Y-47858D01*
X58730Y-48930D01*
X58730Y-48930D01*
G37*
G54D20*
X58730Y-48930D02*
X55550Y-48930D01*
X55550Y-46937D01*
X55550Y-46300D01*
X54912Y-46300D01*
X54850Y-46362D01*
X54849Y-46700D01*
X54850Y-46799D01*
X54888Y-46891D01*
X54958Y-46962D01*
X55050Y-47000D01*
X55487Y-47000D01*
X55550Y-46937D01*
X55550Y-48930D01*
X49993Y-48930D01*
X50975Y-47949D01*
X50974Y-48103D01*
X51054Y-48297D01*
X51202Y-48444D01*
X51395Y-48524D01*
X51603Y-48525D01*
X51797Y-48445D01*
X51944Y-48297D01*
X52024Y-48104D01*
X52025Y-47899D01*
X52274Y-47650D01*
X52346Y-47650D01*
X52288Y-47708D01*
X52250Y-47800D01*
X52249Y-47899D01*
X52249Y-48499D01*
X52287Y-48591D01*
X52358Y-48661D01*
X52450Y-48699D01*
X52549Y-48700D01*
X53149Y-48700D01*
X53241Y-48662D01*
X53311Y-48591D01*
X53349Y-48499D01*
X53349Y-48477D01*
X53488Y-48615D01*
X53690Y-48699D01*
X53908Y-48700D01*
X54111Y-48616D01*
X54265Y-48461D01*
X54349Y-48259D01*
X54350Y-48041D01*
X54266Y-47838D01*
X54111Y-47684D01*
X53934Y-47610D01*
X53929Y-47605D01*
X53929Y-43325D01*
X53918Y-43117D01*
X53860Y-42977D01*
X53767Y-42952D01*
X53697Y-43023D01*
X53697Y-42882D01*
X53672Y-42789D01*
X53475Y-42720D01*
X53267Y-42731D01*
X53127Y-42789D01*
X53102Y-42882D01*
X53400Y-43179D01*
X53697Y-42882D01*
X53697Y-43023D01*
X53470Y-43250D01*
X53767Y-43547D01*
X53860Y-43522D01*
X53929Y-43325D01*
X53929Y-47605D01*
X53925Y-47600D01*
X53925Y-45146D01*
X53845Y-44953D01*
X53697Y-44805D01*
X53564Y-44749D01*
X53697Y-44695D01*
X53844Y-44547D01*
X53924Y-44354D01*
X53925Y-44146D01*
X53845Y-43953D01*
X53697Y-43805D01*
X53571Y-43752D01*
X53672Y-43710D01*
X53697Y-43617D01*
X53400Y-43320D01*
X53329Y-43391D01*
X53329Y-43250D01*
X53032Y-42952D01*
X53000Y-42961D01*
X53000Y-41649D01*
X53000Y-40850D01*
X52962Y-40758D01*
X52891Y-40688D01*
X52799Y-40650D01*
X52700Y-40649D01*
X52512Y-40650D01*
X52450Y-40712D01*
X52450Y-41200D01*
X52937Y-41200D01*
X53000Y-41137D01*
X53000Y-40850D01*
X53000Y-41649D01*
X53000Y-41362D01*
X52937Y-41300D01*
X52450Y-41300D01*
X52450Y-41787D01*
X52512Y-41850D01*
X52700Y-41850D01*
X52799Y-41849D01*
X52891Y-41811D01*
X52962Y-41741D01*
X53000Y-41649D01*
X53000Y-42961D01*
X52939Y-42977D01*
X52870Y-43174D01*
X52881Y-43382D01*
X52939Y-43522D01*
X53032Y-43547D01*
X53329Y-43250D01*
X53329Y-43391D01*
X53102Y-43617D01*
X53127Y-43710D01*
X53237Y-43749D01*
X53103Y-43804D01*
X52955Y-43952D01*
X52875Y-44145D01*
X52874Y-44353D01*
X52954Y-44547D01*
X53102Y-44694D01*
X53235Y-44750D01*
X53103Y-44804D01*
X52955Y-44952D01*
X52875Y-45145D01*
X52874Y-45353D01*
X52954Y-45547D01*
X53102Y-45694D01*
X53174Y-45724D01*
X53075Y-45724D01*
X52983Y-45762D01*
X52913Y-45833D01*
X52875Y-45925D01*
X52874Y-46024D01*
X52874Y-46574D01*
X52912Y-46666D01*
X52983Y-46736D01*
X53075Y-46774D01*
X53174Y-46775D01*
X53724Y-46775D01*
X53816Y-46737D01*
X53886Y-46666D01*
X53924Y-46574D01*
X53925Y-46475D01*
X53925Y-45925D01*
X53887Y-45833D01*
X53816Y-45763D01*
X53724Y-45725D01*
X53625Y-45724D01*
X53625Y-45724D01*
X53697Y-45695D01*
X53844Y-45547D01*
X53924Y-45354D01*
X53925Y-45146D01*
X53925Y-47600D01*
X53462Y-47137D01*
X53364Y-47072D01*
X53250Y-47050D01*
X52350Y-47050D01*
X52350Y-41787D01*
X52350Y-41300D01*
X52342Y-41300D01*
X52342Y-41200D01*
X52350Y-41200D01*
X52350Y-40712D01*
X52287Y-40650D01*
X52099Y-40649D01*
X52000Y-40650D01*
X51908Y-40688D01*
X51837Y-40758D01*
X51814Y-40815D01*
X51740Y-40741D01*
X51519Y-40650D01*
X51281Y-40649D01*
X51060Y-40741D01*
X50899Y-40901D01*
X50740Y-40741D01*
X50519Y-40650D01*
X50281Y-40649D01*
X50060Y-40741D01*
X49891Y-40909D01*
X49800Y-41130D01*
X49799Y-41368D01*
X49891Y-41589D01*
X50059Y-41758D01*
X50280Y-41849D01*
X50518Y-41850D01*
X50739Y-41758D01*
X50900Y-41598D01*
X51059Y-41758D01*
X51280Y-41849D01*
X51518Y-41850D01*
X51739Y-41758D01*
X51814Y-41684D01*
X51837Y-41741D01*
X51908Y-41811D01*
X52000Y-41849D01*
X52099Y-41850D01*
X52287Y-41850D01*
X52350Y-41787D01*
X52350Y-47050D01*
X52150Y-47050D01*
X52035Y-47072D01*
X51937Y-47137D01*
X51600Y-47475D01*
X51396Y-47474D01*
X51250Y-47535D01*
X51250Y-45650D01*
X51249Y-45649D01*
X51227Y-45535D01*
X51162Y-45437D01*
X51162Y-45437D01*
X50925Y-45200D01*
X50925Y-45146D01*
X50845Y-44953D01*
X50697Y-44805D01*
X50564Y-44749D01*
X50697Y-44695D01*
X50844Y-44547D01*
X50924Y-44354D01*
X50925Y-44146D01*
X50845Y-43953D01*
X50697Y-43805D01*
X50564Y-43749D01*
X50697Y-43695D01*
X50844Y-43547D01*
X50924Y-43354D01*
X50925Y-43146D01*
X50845Y-42953D01*
X50697Y-42805D01*
X50504Y-42725D01*
X50296Y-42724D01*
X50103Y-42804D01*
X49955Y-42952D01*
X49875Y-43145D01*
X49874Y-43353D01*
X49954Y-43547D01*
X50102Y-43694D01*
X50235Y-43750D01*
X50103Y-43804D01*
X49955Y-43952D01*
X49875Y-44145D01*
X49875Y-44200D01*
X49537Y-44537D01*
X49472Y-44635D01*
X49453Y-44732D01*
X49275Y-44670D01*
X49067Y-44681D01*
X48927Y-44739D01*
X48902Y-44832D01*
X49200Y-45129D01*
X49205Y-45123D01*
X49276Y-45194D01*
X49270Y-45200D01*
X49276Y-45205D01*
X49205Y-45276D01*
X49200Y-45270D01*
X49129Y-45341D01*
X49129Y-45200D01*
X48832Y-44902D01*
X48739Y-44927D01*
X48670Y-45124D01*
X48681Y-45332D01*
X48739Y-45472D01*
X48832Y-45497D01*
X49129Y-45200D01*
X49129Y-45341D01*
X48902Y-45567D01*
X48927Y-45660D01*
X49037Y-45699D01*
X48903Y-45754D01*
X48755Y-45902D01*
X48675Y-46095D01*
X48674Y-46303D01*
X48688Y-46337D01*
X48429Y-46595D01*
X48429Y-45275D01*
X48418Y-45067D01*
X48360Y-44927D01*
X48267Y-44902D01*
X48197Y-44973D01*
X48197Y-44832D01*
X48172Y-44739D01*
X47975Y-44670D01*
X47767Y-44681D01*
X47627Y-44739D01*
X47602Y-44832D01*
X47900Y-45129D01*
X48197Y-44832D01*
X48197Y-44973D01*
X47970Y-45200D01*
X48267Y-45497D01*
X48360Y-45472D01*
X48429Y-45275D01*
X48429Y-46595D01*
X48425Y-46600D01*
X48425Y-46096D01*
X48345Y-45903D01*
X48197Y-45755D01*
X48071Y-45702D01*
X48172Y-45660D01*
X48197Y-45567D01*
X47900Y-45270D01*
X47829Y-45341D01*
X47829Y-45200D01*
X47532Y-44902D01*
X47439Y-44927D01*
X47370Y-45124D01*
X47381Y-45332D01*
X47439Y-45472D01*
X47532Y-45497D01*
X47829Y-45200D01*
X47829Y-45341D01*
X47602Y-45567D01*
X47627Y-45660D01*
X47737Y-45699D01*
X47603Y-45754D01*
X47455Y-45902D01*
X47375Y-46095D01*
X47374Y-46303D01*
X47454Y-46497D01*
X47602Y-46644D01*
X47795Y-46724D01*
X48003Y-46725D01*
X48197Y-46645D01*
X48344Y-46497D01*
X48424Y-46304D01*
X48425Y-46096D01*
X48425Y-46600D01*
X47325Y-47700D01*
X47171Y-47700D01*
X47166Y-47688D01*
X47011Y-47534D01*
X46809Y-47450D01*
X46674Y-47449D01*
X47162Y-46962D01*
X47227Y-46864D01*
X47249Y-46750D01*
X47250Y-46750D01*
X47250Y-44624D01*
X47524Y-44350D01*
X48450Y-44350D01*
X48450Y-44349D01*
X48564Y-44327D01*
X48564Y-44327D01*
X48662Y-44262D01*
X49149Y-43774D01*
X49353Y-43775D01*
X49547Y-43695D01*
X49694Y-43547D01*
X49774Y-43354D01*
X49775Y-43146D01*
X49695Y-42953D01*
X49547Y-42805D01*
X49354Y-42725D01*
X49146Y-42724D01*
X48953Y-42804D01*
X48929Y-42827D01*
X48929Y-41075D01*
X48918Y-40867D01*
X48860Y-40727D01*
X48767Y-40702D01*
X48697Y-40773D01*
X48697Y-40632D01*
X48672Y-40539D01*
X48475Y-40470D01*
X48267Y-40481D01*
X48127Y-40539D01*
X48102Y-40632D01*
X48400Y-40929D01*
X48697Y-40632D01*
X48697Y-40773D01*
X48470Y-41000D01*
X48767Y-41297D01*
X48860Y-41272D01*
X48929Y-41075D01*
X48929Y-42827D01*
X48925Y-42832D01*
X48925Y-41896D01*
X48845Y-41703D01*
X48697Y-41555D01*
X48571Y-41502D01*
X48672Y-41460D01*
X48697Y-41367D01*
X48400Y-41070D01*
X48329Y-41141D01*
X48329Y-41000D01*
X48032Y-40702D01*
X47939Y-40727D01*
X47870Y-40924D01*
X47881Y-41132D01*
X47939Y-41272D01*
X48032Y-41297D01*
X48329Y-41000D01*
X48329Y-41141D01*
X48102Y-41367D01*
X48127Y-41460D01*
X48237Y-41499D01*
X48103Y-41554D01*
X47955Y-41702D01*
X47875Y-41895D01*
X47874Y-42103D01*
X47954Y-42297D01*
X48102Y-42444D01*
X48295Y-42524D01*
X48503Y-42525D01*
X48697Y-42445D01*
X48844Y-42297D01*
X48924Y-42104D01*
X48925Y-41896D01*
X48925Y-42832D01*
X48805Y-42952D01*
X48725Y-43145D01*
X48724Y-43350D01*
X48325Y-43750D01*
X47400Y-43750D01*
X47385Y-43752D01*
X47385Y-40835D01*
X47305Y-40642D01*
X47158Y-40494D01*
X46965Y-40414D01*
X46756Y-40414D01*
X46563Y-40494D01*
X46415Y-40641D01*
X46335Y-40834D01*
X46335Y-41043D01*
X46415Y-41236D01*
X46562Y-41384D01*
X46755Y-41464D01*
X46964Y-41464D01*
X47157Y-41384D01*
X47305Y-41237D01*
X47385Y-41044D01*
X47385Y-40835D01*
X47385Y-43752D01*
X47285Y-43772D01*
X47187Y-43837D01*
X46779Y-44245D01*
X46779Y-43325D01*
X46768Y-43117D01*
X46710Y-42977D01*
X46617Y-42952D01*
X46547Y-43023D01*
X46547Y-42882D01*
X46522Y-42789D01*
X46325Y-42720D01*
X46117Y-42731D01*
X45977Y-42789D01*
X45952Y-42882D01*
X46250Y-43179D01*
X46547Y-42882D01*
X46547Y-43023D01*
X46320Y-43250D01*
X46617Y-43547D01*
X46710Y-43522D01*
X46779Y-43325D01*
X46779Y-44245D01*
X46737Y-44287D01*
X46672Y-44385D01*
X46650Y-44500D01*
X46650Y-45746D01*
X46591Y-45688D01*
X46547Y-45669D01*
X46547Y-43617D01*
X46250Y-43320D01*
X46179Y-43391D01*
X46179Y-43250D01*
X45882Y-42952D01*
X45789Y-42977D01*
X45720Y-43174D01*
X45731Y-43382D01*
X45789Y-43522D01*
X45882Y-43547D01*
X46179Y-43250D01*
X46179Y-43391D01*
X45952Y-43617D01*
X45977Y-43710D01*
X46174Y-43779D01*
X46382Y-43768D01*
X46522Y-43710D01*
X46547Y-43617D01*
X46547Y-45669D01*
X46499Y-45650D01*
X46400Y-45649D01*
X45700Y-45649D01*
X45608Y-45687D01*
X45538Y-45758D01*
X45518Y-45804D01*
X45496Y-45782D01*
X45451Y-45827D01*
X45417Y-45727D01*
X45264Y-45671D01*
X45264Y-42956D01*
X45184Y-42763D01*
X45037Y-42615D01*
X44844Y-42535D01*
X44635Y-42535D01*
X44442Y-42615D01*
X44294Y-42762D01*
X44214Y-42955D01*
X44214Y-43164D01*
X44294Y-43357D01*
X44441Y-43505D01*
X44634Y-43585D01*
X44843Y-43585D01*
X45036Y-43505D01*
X45184Y-43358D01*
X45264Y-43165D01*
X45264Y-42956D01*
X45264Y-45671D01*
X45193Y-45645D01*
X44955Y-45655D01*
X44782Y-45727D01*
X44748Y-45827D01*
X45100Y-46179D01*
X45105Y-46173D01*
X45176Y-46244D01*
X45170Y-46250D01*
X45176Y-46255D01*
X45105Y-46326D01*
X45100Y-46320D01*
X45029Y-46391D01*
X45029Y-46250D01*
X44677Y-45898D01*
X44612Y-45920D01*
X44608Y-45910D01*
X44440Y-45741D01*
X44219Y-45650D01*
X44204Y-45650D01*
X44204Y-41081D01*
X44193Y-40863D01*
X44131Y-40712D01*
X44035Y-40684D01*
X43965Y-40755D01*
X43965Y-40614D01*
X43937Y-40518D01*
X43731Y-40445D01*
X43513Y-40456D01*
X43362Y-40518D01*
X43334Y-40614D01*
X43650Y-40929D01*
X43965Y-40614D01*
X43965Y-40755D01*
X43720Y-41000D01*
X44035Y-41315D01*
X44131Y-41287D01*
X44204Y-41081D01*
X44204Y-45650D01*
X44200Y-45650D01*
X44200Y-42250D01*
X44200Y-41650D01*
X44162Y-41558D01*
X44091Y-41488D01*
X43999Y-41450D01*
X43946Y-41449D01*
X43965Y-41385D01*
X43650Y-41070D01*
X43579Y-41141D01*
X43579Y-41000D01*
X43264Y-40684D01*
X43168Y-40712D01*
X43095Y-40918D01*
X43106Y-41136D01*
X43168Y-41287D01*
X43264Y-41315D01*
X43579Y-41000D01*
X43579Y-41141D01*
X43334Y-41385D01*
X43353Y-41449D01*
X43300Y-41449D01*
X43208Y-41487D01*
X43138Y-41558D01*
X43100Y-41650D01*
X43099Y-41749D01*
X43099Y-42349D01*
X43137Y-42441D01*
X43208Y-42511D01*
X43300Y-42549D01*
X43399Y-42550D01*
X43999Y-42550D01*
X44091Y-42512D01*
X44161Y-42441D01*
X44199Y-42349D01*
X44200Y-42250D01*
X44200Y-45650D01*
X43981Y-45649D01*
X43760Y-45741D01*
X43591Y-45909D01*
X43500Y-46130D01*
X43499Y-46368D01*
X43591Y-46589D01*
X43759Y-46758D01*
X43980Y-46849D01*
X44218Y-46850D01*
X44439Y-46758D01*
X44608Y-46590D01*
X44612Y-46579D01*
X44677Y-46601D01*
X45029Y-46250D01*
X45029Y-46391D01*
X44748Y-46672D01*
X44782Y-46772D01*
X45006Y-46854D01*
X45074Y-46851D01*
X44925Y-47000D01*
X44300Y-47000D01*
X44185Y-47022D01*
X44087Y-47087D01*
X43725Y-47450D01*
X43591Y-47449D01*
X43388Y-47533D01*
X43234Y-47688D01*
X43200Y-47769D01*
X43166Y-47688D01*
X43011Y-47534D01*
X42809Y-47450D01*
X42591Y-47449D01*
X42388Y-47533D01*
X42254Y-47667D01*
X42254Y-40331D01*
X42243Y-40113D01*
X42181Y-39962D01*
X42085Y-39934D01*
X42015Y-40005D01*
X42015Y-39864D01*
X41987Y-39768D01*
X41781Y-39695D01*
X41563Y-39706D01*
X41412Y-39768D01*
X41384Y-39864D01*
X41700Y-40179D01*
X42015Y-39864D01*
X42015Y-40005D01*
X41770Y-40250D01*
X42085Y-40565D01*
X42181Y-40537D01*
X42254Y-40331D01*
X42254Y-47667D01*
X42250Y-47671D01*
X42250Y-42141D01*
X42166Y-41938D01*
X42011Y-41784D01*
X41930Y-41750D01*
X42011Y-41716D01*
X42165Y-41561D01*
X42249Y-41359D01*
X42250Y-41141D01*
X42166Y-40938D01*
X42011Y-40784D01*
X41936Y-40752D01*
X41987Y-40731D01*
X42015Y-40635D01*
X41700Y-40320D01*
X41629Y-40391D01*
X41629Y-40250D01*
X41314Y-39934D01*
X41218Y-39962D01*
X41145Y-40168D01*
X41156Y-40386D01*
X41218Y-40537D01*
X41314Y-40565D01*
X41629Y-40250D01*
X41629Y-40391D01*
X41384Y-40635D01*
X41412Y-40731D01*
X41467Y-40750D01*
X41388Y-40783D01*
X41234Y-40938D01*
X41150Y-41140D01*
X41149Y-41358D01*
X41233Y-41561D01*
X41388Y-41715D01*
X41469Y-41749D01*
X41388Y-41783D01*
X41234Y-41938D01*
X41150Y-42140D01*
X41149Y-42358D01*
X41233Y-42561D01*
X41372Y-42699D01*
X41350Y-42699D01*
X41258Y-42737D01*
X41188Y-42808D01*
X41150Y-42900D01*
X41149Y-42999D01*
X41149Y-43599D01*
X41187Y-43691D01*
X41258Y-43761D01*
X41350Y-43799D01*
X41449Y-43800D01*
X42049Y-43800D01*
X42141Y-43762D01*
X42211Y-43691D01*
X42249Y-43599D01*
X42250Y-43500D01*
X42250Y-42900D01*
X42212Y-42808D01*
X42141Y-42738D01*
X42049Y-42700D01*
X42027Y-42700D01*
X42165Y-42561D01*
X42249Y-42359D01*
X42250Y-42141D01*
X42250Y-47671D01*
X42249Y-47672D01*
X42249Y-47650D01*
X42211Y-47558D01*
X42141Y-47487D01*
X42049Y-47449D01*
X41812Y-47450D01*
X41750Y-47512D01*
X41750Y-47950D01*
X41757Y-47950D01*
X41757Y-48050D01*
X41750Y-48050D01*
X41750Y-48487D01*
X41812Y-48550D01*
X42049Y-48550D01*
X42141Y-48512D01*
X42211Y-48441D01*
X42249Y-48349D01*
X42249Y-48327D01*
X42388Y-48465D01*
X42590Y-48549D01*
X42725Y-48550D01*
X43106Y-48930D01*
X41650Y-48930D01*
X41650Y-48487D01*
X41650Y-48050D01*
X41650Y-47950D01*
X41650Y-47512D01*
X41587Y-47450D01*
X41350Y-47449D01*
X41258Y-47487D01*
X41188Y-47558D01*
X41150Y-47650D01*
X41149Y-47749D01*
X41150Y-47887D01*
X41212Y-47950D01*
X41650Y-47950D01*
X41650Y-48050D01*
X41212Y-48050D01*
X41150Y-48112D01*
X41149Y-48250D01*
X41150Y-48349D01*
X41188Y-48441D01*
X41258Y-48512D01*
X41350Y-48550D01*
X41587Y-48550D01*
X41650Y-48487D01*
X41650Y-48930D01*
X39669Y-48930D01*
X39669Y-45787D01*
X39842Y-46205D01*
X40192Y-46556D01*
X40650Y-46746D01*
X41146Y-46747D01*
X41605Y-46557D01*
X41956Y-46207D01*
X42146Y-45749D01*
X42147Y-45253D01*
X41957Y-44794D01*
X41607Y-44443D01*
X41149Y-44253D01*
X40653Y-44252D01*
X40194Y-44442D01*
X39843Y-44792D01*
X39669Y-45211D01*
X39669Y-39669D01*
X58730Y-39669D01*
X58730Y-40620D01*
X58657Y-40444D01*
X58307Y-40093D01*
X57849Y-39903D01*
X57353Y-39902D01*
X56894Y-40092D01*
X56543Y-40442D01*
X56353Y-40900D01*
X56352Y-41396D01*
X56542Y-41855D01*
X56892Y-42206D01*
X57350Y-42396D01*
X57846Y-42397D01*
X58305Y-42207D01*
X58656Y-41857D01*
X58730Y-41679D01*
X58730Y-47041D01*
X58607Y-46744D01*
X58257Y-46393D01*
X57799Y-46203D01*
X57303Y-46202D01*
X56844Y-46392D01*
X56493Y-46742D01*
X56350Y-47088D01*
X56350Y-44101D01*
X56236Y-43825D01*
X56025Y-43614D01*
X56016Y-43611D01*
X56065Y-43561D01*
X56149Y-43359D01*
X56150Y-43141D01*
X56066Y-42938D01*
X56016Y-42889D01*
X56024Y-42886D01*
X56235Y-42675D01*
X56349Y-42399D01*
X56350Y-42101D01*
X56236Y-41825D01*
X56025Y-41614D01*
X55749Y-41500D01*
X55451Y-41499D01*
X55175Y-41613D01*
X54964Y-41824D01*
X54850Y-42100D01*
X54849Y-42398D01*
X54963Y-42674D01*
X55174Y-42885D01*
X55183Y-42888D01*
X55134Y-42938D01*
X55050Y-43140D01*
X55049Y-43358D01*
X55133Y-43561D01*
X55183Y-43610D01*
X55175Y-43613D01*
X54964Y-43824D01*
X54850Y-44100D01*
X54849Y-44398D01*
X54963Y-44674D01*
X55173Y-44884D01*
X55168Y-44889D01*
X55214Y-44934D01*
X55118Y-44962D01*
X55045Y-45168D01*
X55056Y-45386D01*
X55103Y-45499D01*
X55050Y-45499D01*
X54958Y-45537D01*
X54888Y-45608D01*
X54850Y-45700D01*
X54849Y-45799D01*
X54850Y-46137D01*
X54912Y-46200D01*
X55550Y-46200D01*
X55550Y-46192D01*
X55650Y-46192D01*
X55650Y-46200D01*
X56287Y-46200D01*
X56350Y-46137D01*
X56350Y-45799D01*
X56349Y-45700D01*
X56311Y-45608D01*
X56241Y-45537D01*
X56149Y-45499D01*
X56094Y-45499D01*
X56154Y-45331D01*
X56143Y-45113D01*
X56081Y-44962D01*
X55985Y-44934D01*
X56031Y-44889D01*
X56026Y-44884D01*
X56235Y-44675D01*
X56349Y-44399D01*
X56350Y-44101D01*
X56350Y-47088D01*
X56350Y-47088D01*
X56350Y-46700D01*
X56350Y-46362D01*
X56287Y-46300D01*
X55650Y-46300D01*
X55650Y-46937D01*
X55712Y-47000D01*
X56149Y-47000D01*
X56241Y-46962D01*
X56311Y-46891D01*
X56349Y-46799D01*
X56350Y-46700D01*
X56350Y-47088D01*
X56303Y-47200D01*
X56302Y-47696D01*
X56492Y-48155D01*
X56842Y-48506D01*
X57300Y-48696D01*
X57796Y-48697D01*
X58255Y-48507D01*
X58606Y-48157D01*
X58730Y-47858D01*
X58730Y-48930D01*
M02*
