G04 (created by PCBNEW (2013-june-11)-stable) date Thu 27 Nov 2014 07:47:22 AM EST*
%MOIN*%
G04 Gerber Fmt 3.4, Leading zero omitted, Abs format*
%FSLAX34Y34*%
G01*
G70*
G90*
G04 APERTURE LIST*
%ADD10C,0.00590551*%
%ADD11C,0.19937*%
%ADD12C,0.06*%
%ADD13C,0.1*%
%ADD14R,0.1X0.1*%
%ADD15R,0.06X0.06*%
%ADD16C,0.07*%
%ADD17R,0.07X0.07*%
%ADD18C,0.055*%
%ADD19R,0.055X0.055*%
G04 APERTURE END LIST*
G54D10*
G54D11*
X40900Y-45500D03*
X57600Y-41150D03*
X57550Y-47450D03*
G54D12*
X55600Y-43250D03*
G54D13*
X55600Y-44250D03*
G54D14*
X55600Y-46250D03*
G54D13*
X55600Y-42250D03*
G54D12*
X55600Y-45250D03*
G54D15*
X52800Y-48150D03*
G54D12*
X53800Y-48150D03*
G54D16*
X44100Y-46250D03*
X45100Y-46250D03*
G54D17*
X46100Y-46250D03*
G54D16*
X50400Y-41250D03*
X51400Y-41250D03*
G54D17*
X52400Y-41250D03*
G54D18*
X49250Y-43250D03*
X46250Y-43250D03*
X51500Y-48000D03*
X48500Y-48000D03*
G54D15*
X41700Y-43250D03*
G54D12*
X41700Y-42250D03*
X41700Y-41250D03*
X41700Y-40250D03*
G54D15*
X41700Y-48000D03*
G54D12*
X42700Y-48000D03*
X43700Y-48000D03*
X44700Y-48000D03*
X45700Y-48000D03*
X46700Y-48000D03*
G54D18*
X48400Y-42000D03*
X48400Y-41000D03*
X47900Y-46200D03*
X47900Y-45200D03*
G54D19*
X53400Y-46250D03*
G54D18*
X53400Y-45250D03*
X53400Y-44250D03*
X53400Y-43250D03*
X50400Y-43250D03*
X50400Y-44250D03*
X50400Y-45250D03*
X50400Y-46250D03*
X49200Y-45200D03*
X49200Y-46200D03*
G54D15*
X43650Y-42000D03*
G54D12*
X43650Y-41000D03*
G54D18*
X44739Y-43060D03*
X46860Y-40939D03*
M02*
